<?xml version="1.0" encoding="iso-8859-1"?>
<!-- Uploaded to: SVG Repo, www.svgrepo.com, Generator: SVG Repo Mixer Tools -->
<svg height="800px" width="800px" version="1.1" id="Layer_1" xmlns="http://www.w3.org/2000/svg" xmlns:xlink="http://www.w3.org/1999/xlink" 
	 viewBox="0 0 503.326 503.326" xml:space="preserve">
<g>
	<path style="fill:#797979;" d="M451.254,425.219c0-23.96-19.43-43.39-43.39-43.39c-23.96,0-43.39,19.43-43.39,43.39
		c0,23.96,19.43,43.39,43.39,43.39C431.824,468.609,451.254,449.179,451.254,425.219"/>
	<path style="fill:#FFD479;" d="M321.085,173.558H155.622c-1.458,2.76-2.968,5.632-4.521,8.678
		C125.388,232.395,86.78,295.05,86.78,295.05v17.356h156.229c47.911,0,86.754-38.843,86.754-86.754v-43.416
		C329.763,177.446,325.875,173.558,321.085,173.558"/>
	<path style="fill:#EE8472;" d="M497.867,336.257l-37.931-15.178l-22.754-90.988c-1.927-7.723-8.869-13.147-16.835-13.147h-90.581
		v8.704c0,47.92-38.843,86.754-86.762,86.754H86.783v104.136c0,4.799,3.879,8.678,8.678,8.678h43.39
		c0-23.96,19.421-43.39,43.39-43.39c23.96,0,43.39,19.43,43.39,43.39h104.136h34.712c0-23.96,19.421-43.39,43.39-43.39
		c23.96,0,43.39,19.43,43.39,43.39h43.39c4.79,0,8.678-3.879,8.678-8.678V344.31C503.326,340.769,501.165,337.576,497.867,336.257"
		/>
	<path style="fill:#797979;" d="M225.627,425.219c0-23.96-19.43-43.39-43.39-43.39s-43.39,19.43-43.39,43.39
		c0,23.96,19.43,43.39,43.39,43.39S225.627,449.179,225.627,425.219"/>
	<g>
		<path style="fill:#C0C0C0;" d="M182.237,442.575c-9.58,0-17.356-7.775-17.356-17.356c0-9.58,7.775-17.356,17.356-17.356
			s17.356,7.775,17.356,17.356C199.593,434.799,191.818,442.575,182.237,442.575"/>
		<path style="fill:#C0C0C0;" d="M407.864,442.575c-9.58,0-17.356-7.775-17.356-17.356c0-9.58,7.775-17.356,17.356-17.356
			s17.356,7.775,17.356,17.356C425.22,434.799,417.445,442.575,407.864,442.575"/>
	</g>
	<path style="fill:#DB776A;" d="M381.831,364.471h-17.356c-4.799,0-8.678-3.888-8.678-8.678c0-4.79,3.879-8.678,8.678-8.678h17.356
		c4.799,0,8.678,3.888,8.678,8.678C390.508,360.583,386.629,364.471,381.831,364.471"/>
	<g>
		<path style="fill:#E2B566;" d="M269.017,225.623H132.478c-4.799,0-8.678-3.888-8.678-8.678s3.879-8.678,8.678-8.678h136.539
			c4.799,0,8.678,3.888,8.678,8.678S273.816,225.623,269.017,225.623"/>
		<path style="fill:#E2B566;" d="M251.661,277.691H130.169c-4.799,0-8.678-3.888-8.678-8.678s3.879-8.678,8.678-8.678h121.492
			c4.799,0,8.678,3.888,8.678,8.678S256.46,277.691,251.661,277.691"/>
	</g>
	<path style="fill:#4FBA6F;" d="M86.78,34.717C36.543,34.717,0,74.028,0,117.149c0,25.852,9.624,40.04,22.459,65.085
		C48.171,232.392,86.78,295.047,86.78,295.047s38.608-62.655,64.321-112.814c12.835-25.045,22.459-39.233,22.459-65.085
		C173.559,74.028,137.016,34.717,86.78,34.717"/>
	<path style="fill:#FFFFFF;" d="M130.169,121.49c0-23.96-19.43-43.39-43.39-43.39s-43.39,19.43-43.39,43.39s19.43,43.39,43.39,43.39
		S130.169,145.45,130.169,121.49"/>
	<path style="fill:#DB776A;" d="M373.153,301.386v-41.047c0-4.799-3.879-8.678-8.678-8.678s-8.678,3.879-8.678,8.678v41.047
		c0,15.646,12.731,28.377,28.377,28.377h97.445l-21.686-8.678l-2.169-8.678h-73.589C378.09,312.407,373.153,307.461,373.153,301.386
		"/>
</g>
</svg>