<svg width="60" height="48" viewBox="0 0 60 48" fill="none" xmlns="http://www.w3.org/2000/svg">
<path d="M33.6454 23.9983C33.6454 27.8456 32.1115 31.335 29.6282 33.8734C29.6085 33.8966 29.5855 33.9198 29.5658 33.9397C29.5428 33.9629 29.5198 33.9827 29.4968 34.0059L19.7083 43.881C21.2982 42.2771 22.5069 40.2855 23.1836 38.0587C23.2329 37.8996 23.2788 37.7439 23.3215 37.5815C23.6303 36.4217 23.7945 35.2022 23.7945 33.9397C23.7945 30.0592 22.231 26.5433 19.7116 23.9983L0 4.11902C0.0164236 4.09582 0.0328472 4.08257 0.0525556 4.066C2.56865 1.55085 6.03075 0 9.85089 0C10.4257 0 10.9874 0.0364515 11.5458 0.106041C14.7156 0.490438 17.5569 1.95181 19.7018 4.11902L29.4903 13.9941C29.5132 14.0139 29.5362 14.0371 29.5592 14.057C29.5789 14.0802 29.6019 14.1034 29.6216 14.1233C32.1049 16.6616 33.6389 20.1511 33.6389 23.9983H33.6454Z" fill="url(#paint0_linear_209_4714)"/>
<path d="M19.7083 24.0018C17.5601 26.169 14.7156 27.6304 11.5458 28.0148C10.9907 28.0844 10.4257 28.1175 9.85417 28.1175C8.60926 28.1175 7.3972 27.9518 6.24426 27.6404C3.89568 27.0107 1.79346 25.7714 0.105111 24.1079C0.0919723 24.0946 0.0788334 24.0847 0.0656945 24.0714C0.0427014 24.0482 0.0197083 24.025 0 24.0018C0.036132 23.9621 0.0755487 23.9223 0.114965 23.8858C1.80003 22.2257 3.89897 20.9929 6.24426 20.36C7.3972 20.0485 8.60598 19.8828 9.85417 19.8828C10.4257 19.8828 10.9907 19.916 11.5458 19.9855C14.7189 20.3699 17.5634 21.8346 19.7083 23.9985V24.0018Z" fill="url(#paint1_linear_209_4714)"/>
<path d="M23.7881 33.9432C23.7881 35.2024 23.6238 36.4252 23.3151 37.585C23.2724 37.7474 23.2264 37.9031 23.1771 38.0622C22.5038 40.289 21.295 42.2806 19.7052 43.8845C17.557 46.0517 14.7124 47.5131 11.5426 47.8975C10.9875 47.9671 10.4225 48.0002 9.851 48.0002C6.03086 48.0002 2.56548 46.4493 0.0493818 43.9342C0.0296734 43.9176 0.0165345 43.9044 -0.00317383 43.8812C0.0756596 43.7983 0.154493 43.7221 0.233326 43.6459L5.76809 38.0589L9.851 33.9399L11.5426 32.2333L19.7052 23.9985C22.2246 26.5435 23.7881 30.0594 23.7881 33.9399V33.9432Z" fill="url(#paint2_linear_209_4714)"/>
<path d="M59.125 4.11902L53.3538 9.94132L49.2709 14.0603L39.42 23.9983L29.6315 33.8734C32.1148 31.335 33.6487 27.8456 33.6487 23.9983C33.6487 20.151 32.1148 16.6616 29.6315 14.1233C29.6118 14.1034 29.5888 14.0802 29.5691 14.057L33.6487 9.94132L39.42 4.11902C41.9426 1.57404 45.4277 0 49.2742 0C50.6932 0 52.0629 0.215395 53.3571 0.616362C55.5611 1.299 57.5385 2.51515 59.1283 4.12233L59.125 4.11902Z" fill="url(#paint3_linear_209_4714)"/>
<defs>
<linearGradient id="paint0_linear_209_4714" x1="0" y1="21.9405" x2="33.6454" y2="21.9405" gradientUnits="userSpaceOnUse">
<stop offset="0.11" stop-color="#91D5EA"/>
<stop offset="0.36" stop-color="#79BDBC"/>
<stop offset="0.91" stop-color="#3E8349"/>
<stop offset="1" stop-color="#357A37"/>
</linearGradient>
<linearGradient id="paint1_linear_209_4714" x1="32.0688" y1="24.0018" x2="-13.4805" y2="24.0018" gradientUnits="userSpaceOnUse">
<stop offset="0.27" stop-color="#2D897A"/>
<stop offset="0.88" stop-color="#D9EFA4"/>
</linearGradient>
<linearGradient id="paint2_linear_209_4714" x1="5.00603" y1="49.0175" x2="26.3781" y2="26.7944" gradientUnits="userSpaceOnUse">
<stop offset="0.04" stop-color="#2A9476"/>
<stop offset="0.88" stop-color="#195658"/>
</linearGradient>
<linearGradient id="paint3_linear_209_4714" x1="53.725" y1="-1.00076" x2="24.9297" y2="29.4318" gradientUnits="userSpaceOnUse">
<stop offset="0.27" stop-color="#2D897A"/>
<stop offset="0.88" stop-color="#D9EFA4"/>
</linearGradient>
</defs>
</svg>
