<svg width="30" height="31" viewBox="0 0 30 31" fill="none" xmlns="http://www.w3.org/2000/svg">
<g clip-path="url(#clip0_1195_5508)">
<path d="M18.3648 23.7559C18.3694 23.7536 18.1307 22.1115 18.1254 22.0065C18.0606 20.6912 18.2305 19.3507 18.7168 18.121C20.0246 14.8159 23.6023 13.6318 26.3381 11.8223C27.1181 11.3067 27.8952 10.7601 28.5683 10.108C28.977 9.71189 29.5345 9.15015 29.5159 8.53125C29.7494 9.87289 31.5593 17.6894 26.2464 22.006C24.6847 23.2753 22.8906 24.2302 21.0463 25.0206C20.3007 25.3402 19.5464 25.6173 18.8307 26.0005C18.2714 26.3004 17.3939 26.7974 17.2555 27.4892C17.3723 26.9059 17.2847 25.71 20.4368 23.7268C23.0984 22.052 25.6498 20.3272 27.1017 17.4193C27.8584 15.9038 28.1987 14.2169 28.0849 12.527C27.8514 13.402 27.4427 19.3518 18.3642 23.7559H18.3648Z" fill="#89B05F"/>
<path d="M15.9223 26.4673C15.9164 26.465 16.0787 24.4117 16.0764 24.281C16.0501 22.6466 15.7308 20.9999 15.029 19.5171C13.1415 15.5301 8.61452 14.3535 5.07887 12.334C4.07118 11.7583 3.06408 11.1452 2.17783 10.3916C1.63954 9.93426 0.903337 9.28386 0.876482 8.51562C0.696079 10.1962 -0.91061 20.0234 6.01941 24.9384C8.05697 26.3833 10.3561 27.4211 12.7042 28.2505C13.6529 28.5859 14.6098 28.8677 15.5282 29.2848C16.2451 29.6103 17.3719 30.1551 17.5996 31.0003C17.4075 30.2875 17.4192 28.7994 13.354 26.5986C9.92171 24.7401 6.62192 22.8105 4.58728 19.3269C3.52706 17.5116 2.96892 15.4496 2.97242 13.3473C3.33264 14.4118 4.32164 21.7477 15.9223 26.4662V26.4673Z" fill="#89B05F"/>
<path d="M17.7789 15.6907C17.776 15.6872 18.5683 14.5305 18.6115 14.4524C19.1504 13.4788 19.5199 12.3985 19.6087 11.2855C19.8469 8.29307 17.5734 6.06595 16.1717 3.67667C15.7723 2.99594 15.3858 2.29303 15.1179 1.54813C14.955 1.09606 14.7413 0.462573 14.9859 0C14.3098 0.93098 10.0281 6.18787 12.4521 11.4354C13.1644 12.9783 14.1697 14.3689 15.2749 15.6534C15.7215 16.1726 16.1904 16.6631 16.5909 17.2202C16.9038 17.6554 17.3843 18.3583 17.2319 18.9346C17.3603 18.4487 17.8718 17.5743 16.2184 14.8992C14.8224 12.64 13.5293 10.3843 13.5094 7.63917C13.4989 6.20887 13.8691 4.80248 14.5842 3.56292C14.436 4.31307 12.5321 8.97847 17.7795 15.6913L17.7789 15.6907Z" fill="url(#paint0_linear_1195_5508)"/>
</g>
<defs>
<linearGradient id="paint0_linear_1195_5508" x1="19.5864" y1="9.50385" x2="11.6519" y2="9.50385" gradientUnits="userSpaceOnUse">
<stop stop-color="#F6D365"/>
<stop offset="1" stop-color="#FDA085"/>
</linearGradient>
<clipPath id="clip0_1195_5508">
<rect width="29.4103" height="31" fill="white" transform="matrix(-1 0 0 1 30 0)"/>
</clipPath>
</defs>
</svg>
