<svg viewBox="0 0 56 56" xmlns="http://www.w3.org/2000/svg"><path d="M35.522 18a2 2 0 0 1 1.912 1.413l4.407 14.358.035.13c.486 2.066-.46 3.099-2.835 3.099-2.21 0-4.41-1.422-6.599-4.267a2 2 0 0 0-1.585-.78L28 31.951v.02h-2.956a2 2 0 0 0-1.6.798C21.327 35.59 19.165 37 16.96 37c-2.376 0-3.321-1.033-2.835-3.1l.035-.13 4.407-14.357a2 2 0 0 1 1.749-1.406l.163-.007h15.044ZM23 22a.75.75 0 0 0-.743.648l-.007.102v1.5h-1.5a.75.75 0 0 0-.102 1.493l.102.007h1.499l.001 1.5a.75.75 0 0 0 1.493.102l.007-.102-.001-1.5h1.501a.75.75 0 0 0 .102-1.493l-.102-.007h-1.5v-1.5A.75.75 0 0 0 23 22Zm10 0a3 3 0 1 0 0 6 3 3 0 0 0 0-6Zm0 1.5a1.5 1.5 0 1 1 0 3 1.5 1.5 0 0 1 0-3Z" fill-rule="evenodd" fill="currentColor"></path></svg>