<svg viewBox="0 0 56 56" xmlns="http://www.w3.org/2000/svg"><path fill-rule="evenodd" clip-rule="evenodd" d="M32 22a4.998 4.998 0 0 1-2.492 4.327 9.7 9.7 0 0 1 2.695 1.18 2.799 2.799 0 0 0-.197-.007c-1.282 0-2.426.909-2.649 2.188h-.13c-.899 0-1.727.716-1.727 1.718v.875c0 .463.176.865.455 1.163V38h-8.923a1.843 1.843 0 0 1-1.834-2.023l.118-1.196a9.734 9.734 0 0 1 7.177-8.454A5 5 0 1 1 32 22Z" fill="currentColor"></path><path fill-rule="evenodd" clip-rule="evenodd" d="M35.994 29c.656 0 1.188.512 1.188 1.143 0 .466-.29.866-.704 1.045h2.295c.125 0 .227.097.227.218v.875c0 .121-.102.219-.227.219h-9.546a.223.223 0 0 1-.227-.219v-.875c0-.12.102-.218.227-.218h2.295a1.143 1.143 0 0 1-.704-1.045c0-.631.532-1.143 1.188-1.143.365 0 .691.158.91.407l.052.064.01.014.044.066.565.824a.5.5 0 0 0 .825 0l.588-.857.032-.047c.217-.285.567-.471.962-.471Zm-3.988.682a.506.506 0 0 0-.122.997l.052.01.033.005h.977l-.53-.802-.022-.03a.503.503 0 0 0-.332-.177l-.056-.003Zm3.624.15a.508.508 0 0 1 .87.356.507.507 0 0 1-.404.496l-.062.01h-.98l.542-.821.035-.04ZM34.5 33h4.045v5a1 1 0 0 1-1 1H34.5v-6Zm-1 0h-4.045v5a1 1 0 0 0 1 1H33.5v-6Z" fill="currentColor"></path></svg>