<svg viewBox="0 0 56 56" xmlns="http://www.w3.org/2000/svg"><path d="m41.193 39.502.08.042.838.542c.232.15.297.457.147.687a.502.502 0 0 1-.612.189l-.08-.042-.838-.542a.496.496 0 0 1-.147-.688.502.502 0 0 1 .612-.188Zm-3.382-5.501c.513 0 .936.384.993.879l.007.116v4.28a1 1 0 0 1-1.141.985l-.115-.024-3.789-.998-.478.982a1 1 0 0 1-.773.552l-.127.008H32a.998.998 0 0 1-.993-.878L31 39.787l-.001-1.276-.826-.217-.114-.039a.896.896 0 0 1-.547-.702l-.008-.12-.004-.584.006-.11a.896.896 0 0 1 .547-.722l.117-.04 7.385-1.943c.084-.022.17-.033.256-.033ZM37 20.476c1.105 0 2 .89 2 1.989v9.637l-.1.014-.102.022-9.018 2.374A2.39 2.39 0 0 0 28 36.664l-.006.17.004.586c.002.339.076.664.209.959H19c-1.105 0-2-.892-2-1.99V22.465c0-1.099.895-1.99 2-1.99h18Zm5 16.41a.5.5 0 0 1 .09.992l-.09.008h-1a.5.5 0 0 1-.09-.992l.09-.008h1Zm.258-2.892a.495.495 0 0 1-.076.632l-.071.055-.839.542a.502.502 0 0 1-.691-.146.495.495 0 0 1 .076-.633l.07-.055.84-.542a.502.502 0 0 1 .691.147ZM24.56 24.672c-.199 0-.366.039-.5.115a.95.95 0 0 0-.328.298 2.158 2.158 0 0 0-.179.33l-2.127 5.366-.08.217-.029.085a1.002 1.002 0 0 0-.048.301c0 .168.07.319.21.452.14.132.3.199.483.199.215 0 .37-.063.464-.187.08-.107.176-.299.286-.576l.397-1.058h2.91l.342.893.164.381c.063.144.123.251.178.32a.6.6 0 0 0 .498.227.684.684 0 0 0 .5-.207.63.63 0 0 0 .208-.454c0-.136-.054-.342-.161-.618l-1.929-4.738-.217-.552a2.057 2.057 0 0 0-.21-.386.97.97 0 0 0-.327-.293 1.018 1.018 0 0 0-.505-.115Zm7.202.122h-1.89c-.312 0-.539.07-.679.209-.116.116-.184.291-.204.526l-.006.149v5.22c0 .23.02.417.061.561.041.144.128.256.262.335.106.064.255.102.445.115l.15.004h1.89c.329 0 .624-.02.886-.063.262-.042.507-.115.735-.218.228-.104.438-.242.63-.413.244-.224.444-.477.6-.76.157-.283.272-.602.347-.954a5.65 5.65 0 0 0 .113-1.17c0-1.296-.373-2.26-1.119-2.895a2.329 2.329 0 0 0-.957-.51 4.675 4.675 0 0 0-.978-.13l-.286-.006Zm-.371 1.141c.442 0 .82.048 1.132.143.313.096.576.318.789.668.213.35.32.876.32 1.578 0 .998-.243 1.7-.728 2.108a1.159 1.159 0 0 1-.38.219 1.778 1.778 0 0 1-.425.097l-.113.008-.283.01-1.27.001v-4.832h.958Zm-6.841.258 1.079 2.938H23.49l1.06-2.938ZM38 16a1 1 0 0 1 1 1v.984a1 1 0 0 1-1 1H18a1 1 0 0 1-1-1V17a1 1 0 0 1 1-1h20Z" fill-rule="evenodd" fill="currentColor"></path></svg>