<svg viewBox="0 0 56 56" xmlns="http://www.w3.org/2000/svg"><path d="M17 18.5a1.5 1.5 0 0 1 1.5-1.5h19a1.5 1.5 0 0 1 1.5 1.5v.5H17v-.5ZM43.066 33.08a.502.502 0 0 1 .692.147.495.495 0 0 1-.076.632l-.07.055-.84.542a.502.502 0 0 1-.691-.146.495.495 0 0 1 .076-.633l.07-.055.84-.542ZM40.304 34.112a.998.998 0 0 0-1.249-.845l-7.385 1.944-.117.039c-.3.124-.51.4-.547.722l-.006.11.004.585.008.12a.896.896 0 0 0 .547.701l.114.038.826.218.001 1.276.007.116c.058.494.48.878.993.878h.388l.127-.008a1 1 0 0 0 .773-.552l.478-.982 3.79.998.114.024a1 1 0 0 0 1.141-.985v-4.28l-.007-.117ZM43.5 36.12a.5.5 0 0 1 .09.991l-.09.008h-1a.5.5 0 0 1-.09-.992l.09-.008h1ZM42.693 38.735a.502.502 0 0 0-.612.188.496.496 0 0 0 .147.688l.838.542.08.042a.502.502 0 0 0 .612-.188.496.496 0 0 0-.147-.688l-.839-.542-.08-.042Z" fill="currentColor"></path><path d="M39 20H17v14.5a1.5 1.5 0 0 0 1.5 1.5h11.503l.006-.114.004-.031a1.896 1.896 0 0 1 1.158-1.529l.03-.013.182-.06L38.8 32.3c.066-.017.132-.031.199-.042V20Zm-9.557 2.777a.6.6 0 1 1 1.114.446l-4 10a.6.6 0 1 1-1.114-.446l4-10ZM24.98 24.64a.6.6 0 0 1-.12.84L21.5 28l3.36 2.52a.6.6 0 0 1-.72.96l-3.787-2.84a.8.8 0 0 1 0-1.28l3.787-2.84a.6.6 0 0 1 .84.12Zm6.16.84a.6.6 0 0 1 .72-.96l3.787 2.84a.8.8 0 0 1 0 1.28l-3.787 2.84a.6.6 0 1 1-.72-.96L34.5 28l-3.36-2.52Z" fill="currentColor"></path></svg>