<svg xmlns="http://www.w3.org/2000/svg" xmlns:xlink="http://www.w3.org/1999/xlink" width="240" height="240" viewBox="0 0 33.88 33.88" id="smart-city"><defs><linearGradient id="b" x1="525.992" x2="555.625" y1="149.225" y2="149.225" gradientTransform="translate(-524.081 -132.344) scale(1.0004)" gradientUnits="userSpaceOnUse" xlink:href="#a"></linearGradient><linearGradient id="a"><stop offset="0" stop-color="#1D39C4"></stop><stop offset="1" stop-color="#80d0c7"></stop></linearGradient></defs><path fill="url(#b)" d="m 16.939936,2.1174966 c -0.292365,0 -0.529368,0.2370132 -0.529368,0.5293783 v 2.6473919 h -1.588125 c -0.292755,-2.601e-4 -0.530159,0.2371333 -0.529899,0.5298885 v 2.6453311 h -1.588635 c -0.291545,0.001 -0.527277,0.2378235 -0.527307,0.5293683 V 12.705513 H 4.7632842 c -0.2923551,3e-5 -0.5293483,0.237024 -0.5293784,0.529379 V 30.702716 H 2.6473315 c -0.2923651,0 -0.5293784,0.237013 -0.5293784,0.529378 -2.801e-4,0.292566 0.2368132,0.529889 0.5293784,0.529889 9.5285795,0 19.0571495,0 28.5857295,0 0.292565,0 0.529659,-0.237323 0.529379,-0.529889 0,-0.292365 -0.237014,-0.529378 -0.529379,-0.529378 H 29.644426 V 17.469378 c 2.6e-4,-0.292555 -0.236823,-0.529868 -0.529378,-0.529898 H 21.703801 V 8.9988547 c -3e-5,-0.2923551 -0.237023,-0.5293383 -0.529378,-0.5293683 H 19.587848 V 5.8241553 C 19.588108,5.5316002 19.351025,5.2942968 19.05847,5.2942668 H 17.469835 V 2.6468749 c 0,-0.2925751 -0.237324,-0.5296685 -0.529899,-0.5293783 z m -1.588125,4.2339662 h 3.17677 v 2.1180236 h -3.17677 z m -2.118013,3.1772904 h 7.410736 V 30.702716 h -1.056686 v -2.645321 c 2.9e-4,-0.292575 -0.236803,-0.529898 -0.529378,-0.529898 -0.292775,-2.81e-4 -0.530179,0.237123 -0.529889,0.529898 v 2.645321 H 17.469835 V 20.024744 c 0.614111,-0.220307 1.058746,-0.811089 1.058746,-1.496619 0,-0.870823 -0.717812,-1.588645 -1.588645,-1.588645 -0.870822,0 -1.588125,0.717822 -1.588125,1.588645 0,0.68553 0.444635,1.276312 1.058757,1.496619 v 10.677972 h -1.058757 v -5.292713 c 2.9e-4,-0.292565 -0.236803,-0.529898 -0.529368,-0.529898 -0.292775,-2.9e-4 -0.530189,0.237123 -0.529899,0.529898 v 5.292713 H 13.233798 V 13.234892 Z M 5.2931727,13.76478 H 12.174531 V 30.702716 H 11.117845 V 29.64603 c -1.4e-4,-0.140975 -0.05652,-0.276068 -0.156642,-0.375317 L 8.9993112,27.30882 v -0.402718 c 0.6143218,-0.220197 1.0592668,-0.810419 1.0592668,-1.496099 0,-0.870833 -0.7178124,-1.588645 -1.5886351,-1.588645 -0.8708327,0 -1.588125,0.717812 -1.588125,1.588645 0,0.68551 0.444665,1.275772 1.0587467,1.496099 v 0.621395 c 5.502e-4,0.140185 0.056722,0.274428 0.1561214,0.373256 l 1.961892,1.963953 v 0.83801 H 5.2931727 Z m 11.6467633,4.233967 c 0.298638,0 0.529899,0.23074 0.529899,0.529378 0,0.298637 -0.231261,0.529378 -0.529899,0.529378 -0.298637,0 -0.529368,-0.230741 -0.529368,-0.529378 0,-0.298638 0.230731,-0.529378 0.529368,-0.529378 z m 4.763865,0 h 6.881358 v 12.703969 h -4.763344 v -0.83801 l 1.961892,-1.963953 c 0.09944,-0.09884 0.155571,-0.233071 0.156121,-0.373256 v -0.621395 c 0.614082,-0.220327 1.059267,-0.810589 1.059267,-1.496099 0,-0.870833 -0.717813,-1.588645 -1.588635,-1.588645 -0.870823,0 -1.588645,0.717812 -1.588645,1.588645 0,0.68551 0.444665,1.275772 1.058746,1.496099 v 0.402718 l -1.961372,1.961893 c -0.09994,0.09934 -0.156111,0.234422 -0.156121,0.375317 v 1.056686 H 21.703801 Z M 8.4699429,24.880105 c 0.2986375,0 0.5293683,0.231261 0.5293683,0.529898 0,0.298638 -0.2307308,0.529369 -0.5293683,0.529369 -0.2986375,0 -0.5293783,-0.230731 -0.5293783,-0.529369 0,-0.298637 0.2307408,-0.529898 0.5293783,-0.529898 z m 16.9405171,0 c 0.298637,0 0.529368,0.231261 0.529368,0.529898 0,0.298638 -0.230731,0.529369 -0.529368,0.529369 -0.298638,0 -0.529899,-0.230731 -0.529899,-0.529369 0,-0.298637 0.231261,-0.529898 0.529899,-0.529898 z" color="#000"></path></svg>