<svg width="206" height="207" viewBox="0 0 206 207" fill="none" xmlns="http://www.w3.org/2000/svg">
<g clip-path="url(#clip0_433_4061)">
<path d="M36.0626 206.602C35.3161 206.338 34.7288 205.994 34.3008 205.571L34.8632 204.3C35.2713 204.689 35.7889 205.008 36.4259 205.252C37.063 205.496 37.715 205.615 38.3868 205.615C39.2727 205.615 39.9297 205.456 40.3677 205.137C40.8056 204.818 41.0246 204.39 41.0246 203.862C41.0246 203.474 40.9052 203.155 40.6663 202.911C40.4274 202.667 40.1337 202.477 39.7804 202.348C39.432 202.218 38.9343 202.074 38.2923 201.91C37.491 201.705 36.839 201.496 36.3463 201.292C35.8536 201.088 35.4305 200.769 35.0822 200.341C34.7338 199.912 34.5546 199.334 34.5546 198.607C34.5546 198 34.7039 197.452 35.0025 196.964C35.3011 196.475 35.759 196.087 36.3662 195.793C36.9784 195.499 37.7349 195.355 38.6357 195.355C39.2678 195.355 39.8849 195.439 40.4971 195.614C41.1092 195.788 41.6318 196.037 42.0698 196.361L41.5671 197.661C41.1192 197.357 40.6414 197.128 40.1337 196.969C39.6261 196.809 39.1284 196.734 38.6407 196.734C37.7747 196.734 37.1277 196.904 36.6947 197.238C36.2617 197.571 36.0477 198.01 36.0477 198.538C36.0477 198.926 36.1671 199.245 36.416 199.489C36.6598 199.733 36.9634 199.922 37.3218 200.057C37.6801 200.191 38.1728 200.336 38.7949 200.49C39.5962 200.694 40.2432 200.903 40.731 201.108C41.2187 201.312 41.6368 201.626 41.9901 202.049C42.3385 202.472 42.5177 203.04 42.5177 203.757C42.5177 204.355 42.3634 204.898 42.0598 205.391C41.7562 205.884 41.2934 206.273 40.6713 206.562C40.0491 206.851 39.2877 206.995 38.3819 206.995C37.5806 206.995 36.8042 206.861 36.0576 206.597L36.0626 206.602Z" fill="#DF4D29"/>
<path d="M54.6363 206.871L54.6214 198.577L50.7643 205.486H50.0625L46.2054 198.622V206.866H44.7422V195.484H45.9914L50.4457 203.484L54.8354 195.484H56.0846L56.0995 206.866H54.6363V206.871Z" fill="#DF4D29"/>
<path d="M66.1036 204.021H60.4299L59.2553 206.866H57.6826L62.5152 195.484H64.0232L68.8708 206.866H67.2682L66.0936 204.021H66.1036ZM65.571 202.721L63.2667 197.143L60.9624 202.721H65.5661H65.571Z" fill="#DF4D29"/>
<path d="M77.5998 206.871L75.2955 203.374C75.0118 203.394 74.7878 203.409 74.6236 203.409H71.9858V206.871H70.4629V195.489H74.6236C76.0072 195.489 77.0922 195.843 77.8885 196.545C78.6798 197.247 79.078 198.219 79.078 199.454C79.078 200.331 78.8739 201.078 78.4658 201.695C78.0577 202.313 77.4804 202.761 76.7288 203.045L79.2621 206.866H77.5998V206.871ZM76.7935 201.357C77.3012 200.913 77.555 200.276 77.555 199.454C77.555 198.632 77.3012 198 76.7935 197.561C76.2859 197.123 75.5493 196.904 74.5838 196.904H71.9908V202.024H74.5838C75.5493 202.024 76.2859 201.8 76.7935 201.357Z" fill="#DF4D29"/>
<path d="M83.5125 196.904H79.8545V195.489H88.6836V196.904H85.0255V206.871H83.5175V196.904H83.5125Z" fill="#DF4D29"/>
<path d="M95.2281 206.602C94.4816 206.338 93.8943 205.994 93.4663 205.571L94.0287 204.3C94.4368 204.689 94.9544 205.008 95.5915 205.252C96.2285 205.496 96.8805 205.615 97.5524 205.615C98.4383 205.615 99.0952 205.456 99.5332 205.137C99.9712 204.818 100.19 204.39 100.19 203.862C100.19 203.474 100.071 203.155 99.8318 202.911C99.5929 202.667 99.2993 202.477 98.9459 202.348C98.5975 202.218 98.0998 202.074 97.4578 201.91C96.6565 201.705 96.0045 201.496 95.5118 201.292C95.0191 201.088 94.5961 200.769 94.2477 200.341C93.8993 199.912 93.7201 199.334 93.7201 198.607C93.7201 198 93.8694 197.452 94.1681 196.964C94.4667 196.475 94.9245 196.087 95.5317 195.793C96.1439 195.499 96.9004 195.355 97.8012 195.355C98.4333 195.355 99.0504 195.439 99.6626 195.614C100.275 195.788 100.797 196.037 101.235 196.361L100.733 197.661C100.285 197.357 99.8069 197.128 99.2993 196.969C98.7916 196.809 98.2939 196.734 97.8062 196.734C96.9402 196.734 96.2932 196.904 95.8602 197.238C95.4272 197.571 95.2132 198.01 95.2132 198.538C95.2132 198.926 95.3327 199.245 95.5815 199.489C95.8254 199.733 96.129 199.922 96.4873 200.057C96.8456 200.191 97.3384 200.336 97.9605 200.49C98.7618 200.694 99.4088 200.903 99.8965 201.108C100.384 201.312 100.802 201.626 101.156 202.049C101.504 202.472 101.683 203.04 101.683 203.757C101.683 204.355 101.529 204.898 101.225 205.391C100.922 205.884 100.459 206.273 99.8368 206.562C99.2147 206.851 98.4532 206.995 97.5474 206.995C96.7461 206.995 95.9697 206.861 95.2232 206.597L95.2281 206.602Z" fill="#DF4D29"/>
<path d="M105.008 205.7C104.217 204.833 103.818 203.588 103.818 201.959V195.489H105.341V201.895C105.341 204.335 106.342 205.551 108.342 205.551C109.318 205.551 110.064 205.252 110.582 204.649C111.1 204.046 111.358 203.13 111.358 201.895V195.489H112.837V201.959C112.837 203.598 112.438 204.843 111.647 205.705C110.856 206.567 109.746 206.995 108.322 206.995C106.899 206.995 105.794 206.562 104.998 205.695L105.008 205.7Z" fill="#DF4D29"/>
<path d="M123.393 196.545C124.184 197.247 124.582 198.219 124.582 199.454C124.582 200.689 124.184 201.661 123.393 202.363C122.602 203.065 121.512 203.419 120.128 203.419H117.49V206.866H115.967V195.484H120.128C121.512 195.484 122.597 195.838 123.393 196.54V196.545ZM122.293 201.352C122.801 200.913 123.054 200.281 123.054 199.459C123.054 198.637 122.801 198.005 122.293 197.566C121.785 197.128 121.049 196.909 120.083 196.909H117.49V202.014H120.083C121.049 202.014 121.785 201.795 122.293 201.357V201.352Z" fill="#DF4D29"/>
<path d="M134.247 196.545C135.039 197.247 135.437 198.219 135.437 199.454C135.437 200.689 135.039 201.661 134.247 202.363C133.456 203.065 132.366 203.419 130.982 203.419H128.345V206.866H126.822V195.484H130.982C132.366 195.484 133.451 195.838 134.247 196.54V196.545ZM133.147 201.352C133.655 200.913 133.909 200.281 133.909 199.459C133.909 198.637 133.655 198.005 133.147 197.566C132.64 197.128 131.903 196.909 130.938 196.909H128.345V202.014H130.938C131.903 202.014 132.64 201.795 133.147 201.357V201.352Z" fill="#DF4D29"/>
<path d="M137.682 195.489H139.205V205.456H144.983V206.871H137.682V195.489Z" fill="#DF4D29"/>
<path d="M146.734 195.489H148.257V206.871H146.734V195.489Z" fill="#DF4D29"/>
<path d="M159.207 205.456V206.871H151.462V195.489H158.992V196.904H152.985V200.4H158.336V201.78H152.985V205.456H159.207Z" fill="#DF4D29"/>
<path d="M168.812 206.871L166.508 203.374C166.224 203.394 166 203.409 165.836 203.409H163.198V206.871H161.675V195.489H165.836C167.22 195.489 168.305 195.843 169.101 196.545C169.892 197.247 170.29 198.219 170.29 199.454C170.29 200.331 170.086 201.078 169.678 201.695C169.27 202.313 168.693 202.761 167.941 203.045L170.474 206.866H168.812V206.871ZM168.006 201.357C168.514 200.913 168.767 200.276 168.767 199.454C168.767 198.632 168.514 198 168.006 197.561C167.498 197.123 166.762 196.904 165.796 196.904H163.203V202.024H165.796C166.762 202.024 167.498 201.8 168.006 201.357Z" fill="#DF4D29"/>
<path d="M0 155.079H5.07647V160.384H0V155.079Z" fill="#046FAF"/>
<path d="M0 161.619H5.07647V183.196H0V161.619Z" fill="url(#paint0_linear_433_4061)"/>
<path d="M7.64453 155.079H12.6961C13.5273 155.079 14.2638 155.174 14.9108 155.358C15.5578 155.548 16.1401 155.856 16.6577 156.29C17.1753 156.723 17.6482 157.281 18.0712 157.958C18.4942 158.636 18.8874 159.468 19.2507 160.454L25.3126 176.657H26.9699L32.9821 160.558C33.3603 159.552 33.7684 158.701 34.2014 158.008C34.6344 157.316 35.1122 156.753 35.6397 156.32C36.1673 155.886 36.7446 155.573 37.3767 155.373C38.0088 155.174 38.7006 155.074 39.462 155.074H44.5684V183.191H39.7507V161.614H39.4919C39.1485 161.614 38.815 161.784 38.4965 162.122C38.178 162.461 37.9391 162.845 37.7848 163.263L30.19 183.191H22.0776L14.4579 163.263C14.3037 162.84 14.0598 162.461 13.7313 162.122C13.4028 161.784 13.0644 161.614 12.721 161.614H12.4622V183.191H7.64453V155.074V155.079Z" fill="url(#paint1_linear_433_4061)"/>
<path d="M70.8166 177.678H53.9996L51.7201 183.196H45.8623L56.722 157.47C56.8762 157.072 57.0355 156.728 57.1997 156.434C57.364 156.14 57.5581 155.896 57.782 155.697C58.006 155.498 58.2748 155.343 58.5833 155.239C58.8919 155.134 59.2851 155.079 59.7479 155.079H64.9837C66.417 155.079 67.4721 155.866 68.144 157.435L78.9738 183.196H73.1458L70.8116 177.678H70.8166ZM56.4632 171.491H68.3331L64.7298 162.914C64.5407 162.446 64.3267 162.112 64.0928 161.913C63.8589 161.714 63.62 161.614 63.3811 161.614H61.3853C60.8329 161.614 60.375 162.058 60.0117 162.949L56.4632 171.491Z" fill="url(#paint2_linear_433_4061)"/>
<path d="M94.7857 171.81L86.6235 183.196H79.626L90.7444 168.119L80.4074 155.079H87.4298L95.1241 165.445H97.0154L104.71 155.079H111.732L101.395 168.119L112.514 183.196H105.516L97.3538 171.81H94.7907H94.7857Z" fill="url(#paint3_linear_433_4061)"/>
<path d="M112.951 155.079H142.026V161.614H130.132V183.191H125.055V161.614H112.956V155.079H112.951Z" fill="url(#paint4_linear_433_4061)"/>
<path d="M173.715 176.662V183.196H150.836C146.67 183.196 144.59 180.9 144.59 176.308V161.933C144.59 157.366 146.67 155.079 150.836 155.079H173.64V161.614H150.836C150.059 161.614 149.671 162.073 149.671 162.984V165.828H173.486V172.363H149.671V175.247C149.671 176.183 150.059 176.652 150.836 176.652H173.715V176.662Z" fill="url(#paint5_linear_433_4061)"/>
<path d="M181.205 155.079V165.445H190.507L198.201 155.079H205.224L194.886 168.119L206.005 183.196H199.007L190.845 171.81H181.205V183.196H176.128V155.079H181.205Z" fill="url(#paint6_linear_433_4061)"/>
<path d="M170.33 39.588H164.677C161.75 61.6682 144.814 80.8843 120.168 92.8185H141.813C149.308 92.8185 156.181 88.6147 159.615 81.9204L176.293 49.4152C178.592 44.9324 175.352 39.588 170.33 39.588Z" fill="url(#paint7_linear_433_4061)"/>
<path d="M158.59 39.9466C158.63 39.8271 158.669 39.7075 158.709 39.588H158.655C158.635 39.7075 158.615 39.8271 158.595 39.9466H158.59Z" fill="url(#paint8_linear_433_4061)"/>
<path d="M69.3534 62.4004H76.5301C78.6204 62.4004 80.3325 64.1088 80.3325 66.2057C80.3325 67.2467 79.9045 68.1981 79.2127 68.8904C78.5259 69.5778 77.5753 70.0061 76.5301 70.0061H51.2225C50.1823 70.0061 49.2317 70.4345 48.5399 71.1219C47.8531 71.8142 47.4251 72.7656 47.4251 73.8115C47.4251 75.9035 49.1322 77.6169 51.2225 77.6169H75.2013C75.5298 77.6169 75.8483 77.6568 76.1519 77.7365C77.7893 78.1648 79.0037 79.6541 79.0037 81.4173C79.0037 82.4633 78.5757 83.4146 77.8839 84.102C77.8291 84.1568 77.7843 84.2016 77.7246 84.2465C77.1423 84.7794 76.3958 85.1181 75.5696 85.2028C75.4501 85.2127 75.3257 85.2227 75.2013 85.2227H61.5446C60.5044 85.2227 59.5538 85.6511 58.862 86.3434C58.1752 87.0308 57.7472 87.9821 57.7472 89.0281C57.7472 91.1151 59.4543 92.8285 61.5446 92.8285H71.5283L71.8916 94.3277C72.3047 96.0362 72.9866 97.6151 73.8725 99.0446C76.8039 98.3822 79.6805 97.64 82.5025 96.8132C81.2483 95.812 80.2927 94.4423 79.8199 92.8235H94.243C123.099 81.5518 144.55 61.8226 152.304 39.5929H66.9247L64.8543 31.0408C64.4263 29.2726 63.5005 27.6787 62.1817 26.4335L48.5449 13.543C46.9274 12.0188 44.3842 12.0886 42.8562 13.7074C41.3333 15.3212 41.403 17.8714 43.0205 19.3955L56.6573 32.286C56.8414 32.4653 56.9758 32.6895 57.0355 32.9335L58.648 39.5929H48.7091C47.664 39.5929 46.7134 40.0213 46.0216 40.7087C45.3348 41.396 44.9067 42.3474 44.9067 43.3934C44.9067 45.4853 46.6138 47.1987 48.7091 47.1987H67.059C67.716 47.1987 68.3282 47.3681 68.8706 47.662C70.0552 48.3095 70.8564 49.5647 70.8564 51.0041C70.8564 51.7911 70.6175 52.5283 70.1945 53.1359C70.0601 53.3352 69.9108 53.5195 69.7416 53.6888C69.3136 54.1172 68.786 54.4409 68.1988 54.6302C67.8354 54.7448 67.4572 54.8095 67.0541 54.8095H37.3219C36.2767 54.8095 35.3262 55.2379 34.6393 55.9252C33.9475 56.6176 33.5195 57.5689 33.5195 58.6099C33.5195 60.7019 35.2266 62.4153 37.3219 62.4153H69.3484L69.3534 62.4004Z" fill="url(#paint9_linear_433_4061)"/>
<path fill-rule="evenodd" clip-rule="evenodd" d="M99.016 67.3962C99.8919 66.1908 99.8919 64.572 99.016 63.3617C95.2684 58.2164 85.6479 44.9972 85.6479 44.9972H87.6188C88.2608 44.9972 88.8929 45.1865 89.4254 45.5351C93.5165 48.2248 111.702 60.1938 116.719 63.4961C117.555 64.049 118.545 64.3429 119.551 64.3429H123.876C124.796 64.3429 125.672 63.9693 126.299 63.3168C129.52 59.9548 139.717 49.3206 142.903 45.9983C143.515 45.3608 144.371 44.9972 145.267 44.9972H146.735C146.735 44.9972 137.114 58.2114 133.367 63.3617C132.491 64.567 132.491 66.1858 133.367 67.3962C137.114 72.5414 146.735 85.7557 146.735 85.7557H144.764C144.122 85.7557 143.49 85.5664 142.957 85.2177C138.866 82.5281 120.681 70.559 115.664 67.2567C114.828 66.7038 113.837 66.41 112.832 66.41H108.507C107.586 66.41 106.71 66.7835 106.083 67.436L89.4802 84.7545C88.868 85.3921 88.012 85.7557 87.1161 85.7557H85.6479C85.6479 85.7557 95.2684 72.5414 99.016 67.3962Z" fill="white"/>
<path d="M155.668 7.82993C156.624 10.6342 157.335 13.548 157.783 16.5714C163.502 55.2877 123.448 93.2817 68.3281 101.435C60.6586 102.571 53.1435 103.059 45.8672 102.955C50.8939 103.498 56.045 103.776 61.2907 103.776C117.012 103.776 162.183 72.0483 162.183 32.9136C162.183 24.0775 159.874 15.625 155.668 7.82495V7.82993Z" fill="url(#paint10_linear_433_4061)"/>
<path d="M119.929 98.5565H106.069C97.792 101.336 88.9081 103.373 79.5963 104.534C81.9454 105.858 84.6479 106.606 87.4997 106.606H119.929C120.656 106.606 121.248 107.198 121.248 107.926C121.248 108.653 120.656 109.24 119.929 109.24H71.6631C68.5127 109.24 65.5962 110.809 63.8543 113.444L57.016 123.795C55.7917 125.647 56.2993 128.148 58.1507 129.368C58.8326 129.821 59.604 130.036 60.3655 130.036C61.6694 130.036 62.9535 129.403 63.7249 128.233L70.5632 117.882C70.8071 117.514 71.2201 117.29 71.6631 117.29H119.929C125.095 117.29 129.291 113.086 129.291 107.926C129.291 102.765 125.09 98.5565 119.929 98.5565Z" fill="url(#paint11_linear_433_4061)"/>
<path d="M70.6983 137.028C75.4146 132.757 76.4049 126.161 72.9101 122.296C69.4153 118.43 62.7589 118.759 58.0426 123.03C53.3263 127.301 52.336 133.897 55.8308 137.762C59.3256 141.627 65.982 141.299 70.6983 137.028Z" fill="url(#paint12_linear_433_4061)"/>
<path d="M119.929 98.5565H106.068C97.7918 101.336 88.908 103.373 79.5962 104.534C81.9453 105.858 84.6477 106.606 87.4995 106.606H119.929C120.656 106.606 121.248 107.198 121.248 107.926C121.248 108.653 120.656 109.24 119.929 109.24H71.6629C68.5126 109.24 65.5961 110.809 63.8541 113.444L57.0158 123.795C56.8715 124.014 56.7471 124.248 56.6525 124.482C55.3237 126.086 54.3631 127.983 53.955 130.021C52.8054 135.779 56.5381 140.451 62.2914 140.451C68.0447 140.451 73.6438 135.784 74.7984 130.021C75.754 125.234 73.3352 121.2 69.1844 119.974L70.563 117.887C70.8069 117.519 71.22 117.295 71.6629 117.295H119.929C125.095 117.295 129.291 113.091 129.291 107.93C129.291 102.77 125.09 98.5615 119.929 98.5615V98.5565Z" fill="url(#paint13_linear_433_4061)"/>
<path d="M116.51 137.031C121.226 132.76 122.216 126.164 118.722 122.299C115.227 118.433 108.57 118.762 103.854 123.033C99.1378 127.304 98.1475 133.9 101.642 137.765C105.137 141.631 111.794 141.302 116.51 137.031Z" fill="url(#paint14_linear_433_4061)"/>
<path d="M155.668 7.82993C158.002 12.5468 159.217 17.956 159.794 23.1511C161.646 39.837 155.041 56.5727 143.704 68.7011C137.283 75.5698 129.803 81.3177 121.701 86.0645C111.453 92.0714 100.275 96.4297 88.7385 99.2289C74.7335 102.626 60.2357 103.712 45.8623 102.96C50.889 103.502 56.0401 103.781 61.2858 103.781C117.007 103.781 162.178 72.0533 162.178 32.9186C162.178 24.0825 159.869 15.63 155.663 7.82993H155.668Z" fill="url(#paint15_linear_433_4061)"/>
<path d="M88.7433 99.2239C100.275 96.4247 111.458 92.0664 121.706 86.0595C129.808 81.3077 137.288 75.5648 143.709 68.6962C155.046 56.5678 161.65 39.832 159.799 23.1461C159.222 17.9511 158.007 12.5418 155.673 7.82495C156.629 10.6292 157.34 13.543 157.788 16.5664C163.507 55.2827 123.452 93.2768 68.3329 101.43C60.6635 102.566 53.1483 103.054 45.8721 102.95C60.2454 103.702 74.7482 102.616 88.7483 99.2189L88.7433 99.2239Z" fill="url(#paint16_linear_433_4061)"/>
<path d="M88.7433 99.2239C100.275 96.4247 111.458 92.0664 121.706 86.0595C129.808 81.3077 137.288 75.5648 143.709 68.6962C155.046 56.5678 161.65 39.832 159.799 23.1461C159.222 17.9511 158.007 12.5418 155.673 7.82495C156.629 10.6292 157.34 13.543 157.788 16.5664C163.507 55.2827 123.452 93.2768 68.3329 101.43C60.6635 102.566 53.1483 103.054 45.8721 102.95C60.2454 103.702 74.7482 102.616 88.7483 99.2189L88.7433 99.2239Z" fill="url(#paint17_linear_433_4061)"/>
</g>
<defs>
<linearGradient id="paint0_linear_433_4061" x1="2.53823" y1="183.196" x2="2.53823" y2="161.619" gradientUnits="userSpaceOnUse">
<stop stop-color="#223368"/>
<stop offset="0.23" stop-color="#20366B"/>
<stop offset="0.45" stop-color="#1A4077"/>
<stop offset="0.68" stop-color="#11518B"/>
<stop offset="0.9" stop-color="#0468A7"/>
<stop offset="0.96" stop-color="#0070B0"/>
</linearGradient>
<linearGradient id="paint1_linear_433_4061" x1="26.1089" y1="-2.94334e-05" x2="26.1089" y2="155.079" gradientUnits="userSpaceOnUse">
<stop stop-color="#223368"/>
<stop offset="0.23" stop-color="#20366B"/>
<stop offset="0.45" stop-color="#1A4077"/>
<stop offset="0.68" stop-color="#11518B"/>
<stop offset="0.9" stop-color="#0468A7"/>
<stop offset="0.96" stop-color="#0070B0"/>
</linearGradient>
<linearGradient id="paint2_linear_433_4061" x1="62.4205" y1="5.73893e-05" x2="62.4205" y2="155.079" gradientUnits="userSpaceOnUse">
<stop stop-color="#223368"/>
<stop offset="0.23" stop-color="#20366B"/>
<stop offset="0.45" stop-color="#1A4077"/>
<stop offset="0.68" stop-color="#11518B"/>
<stop offset="0.9" stop-color="#0468A7"/>
<stop offset="0.96" stop-color="#0070B0"/>
</linearGradient>
<linearGradient id="paint3_linear_433_4061" x1="96.0697" y1="5.73893e-05" x2="96.0697" y2="155.079" gradientUnits="userSpaceOnUse">
<stop stop-color="#223368"/>
<stop offset="0.23" stop-color="#20366B"/>
<stop offset="0.45" stop-color="#1A4077"/>
<stop offset="0.68" stop-color="#11518B"/>
<stop offset="0.9" stop-color="#0468A7"/>
<stop offset="0.96" stop-color="#0070B0"/>
</linearGradient>
<linearGradient id="paint4_linear_433_4061" x1="116.276" y1="174.41" x2="138.824" y2="151.88" gradientUnits="userSpaceOnUse">
<stop stop-color="#28A6DD"/>
<stop offset="0.32" stop-color="#32ADE1"/>
<stop offset="0.86" stop-color="#4DC1EF"/>
<stop offset="1" stop-color="#56C8F3"/>
</linearGradient>
<linearGradient id="paint5_linear_433_4061" x1="147.302" y1="182.634" x2="174.259" y2="155.698" gradientUnits="userSpaceOnUse">
<stop stop-color="#28A6DD"/>
<stop offset="0.32" stop-color="#32ADE1"/>
<stop offset="0.86" stop-color="#4DC1EF"/>
<stop offset="1" stop-color="#56C8F3"/>
</linearGradient>
<linearGradient id="paint6_linear_433_4061" x1="176.571" y1="183.645" x2="205.191" y2="155.047" gradientUnits="userSpaceOnUse">
<stop stop-color="#28A6DD"/>
<stop offset="0.32" stop-color="#32ADE1"/>
<stop offset="0.86" stop-color="#4DC1EF"/>
<stop offset="1" stop-color="#56C8F3"/>
</linearGradient>
<linearGradient id="paint7_linear_433_4061" x1="177.457" y1="34.4278" x2="129.374" y2="102.301" gradientUnits="userSpaceOnUse">
<stop stop-color="#223368"/>
<stop offset="0.23" stop-color="#20366B"/>
<stop offset="0.45" stop-color="#1A4077"/>
<stop offset="0.68" stop-color="#11518B"/>
<stop offset="0.9" stop-color="#0468A7"/>
<stop offset="0.96" stop-color="#0070B0"/>
</linearGradient>
<linearGradient id="paint8_linear_433_4061" x1="158.59" y1="39.7673" x2="158.704" y2="39.7673" gradientUnits="userSpaceOnUse">
<stop stop-color="#F48325"/>
<stop offset="0.06" stop-color="#F27F25"/>
<stop offset="1" stop-color="#DF4D29"/>
</linearGradient>
<linearGradient id="paint9_linear_433_4061" x1="33.5295" y1="55.736" x2="152.304" y2="55.736" gradientUnits="userSpaceOnUse">
<stop stop-color="#F48325"/>
<stop offset="0.06" stop-color="#F27F25"/>
<stop offset="1" stop-color="#DF4D29"/>
</linearGradient>
<linearGradient id="paint10_linear_433_4061" x1="45.8622" y1="55.8007" x2="162.183" y2="55.8007" gradientUnits="userSpaceOnUse">
<stop stop-color="#28A6DD"/>
<stop offset="0.32" stop-color="#32ADE1"/>
<stop offset="0.86" stop-color="#4DC1EF"/>
<stop offset="1" stop-color="#56C8F3"/>
</linearGradient>
<linearGradient id="paint11_linear_433_4061" x1="56.3491" y1="114.296" x2="129.291" y2="114.296" gradientUnits="userSpaceOnUse">
<stop stop-color="#223368"/>
<stop offset="0.23" stop-color="#20366B"/>
<stop offset="0.45" stop-color="#1A4077"/>
<stop offset="0.68" stop-color="#11518B"/>
<stop offset="0.9" stop-color="#0468A7"/>
<stop offset="0.96" stop-color="#0070B0"/>
</linearGradient>
<linearGradient id="paint12_linear_433_4061" x1="53.7506" y1="130.026" x2="75.0071" y2="130.026" gradientUnits="userSpaceOnUse">
<stop stop-color="#223368"/>
<stop offset="0.23" stop-color="#20366B"/>
<stop offset="0.45" stop-color="#1A4077"/>
<stop offset="0.68" stop-color="#11518B"/>
<stop offset="0.9" stop-color="#0468A7"/>
<stop offset="0.96" stop-color="#0070B0"/>
</linearGradient>
<linearGradient id="paint13_linear_433_4061" x1="53.746" y1="119.506" x2="129.291" y2="119.506" gradientUnits="userSpaceOnUse">
<stop stop-color="#223368"/>
<stop offset="0.23" stop-color="#20366B"/>
<stop offset="0.45" stop-color="#1A4077"/>
<stop offset="0.68" stop-color="#11518B"/>
<stop offset="0.9" stop-color="#0468A7"/>
<stop offset="0.96" stop-color="#0070B0"/>
</linearGradient>
<linearGradient id="paint14_linear_433_4061" x1="99.5631" y1="130.024" x2="120.825" y2="130.024" gradientUnits="userSpaceOnUse">
<stop stop-color="#223368"/>
<stop offset="0.23" stop-color="#20366B"/>
<stop offset="0.45" stop-color="#1A4077"/>
<stop offset="0.68" stop-color="#11518B"/>
<stop offset="0.9" stop-color="#0468A7"/>
<stop offset="0.96" stop-color="#0070B0"/>
</linearGradient>
<linearGradient id="paint15_linear_433_4061" x1="87.0265" y1="114.231" x2="150.588" y2="-39.7268" gradientUnits="userSpaceOnUse">
<stop offset="0.37" stop-color="#319ED8"/>
<stop offset="0.6" stop-color="#0278B4"/>
</linearGradient>
<linearGradient id="paint16_linear_433_4061" x1="45.8621" y1="55.5068" x2="162.183" y2="55.5068" gradientUnits="userSpaceOnUse">
<stop stop-color="#28A6DD"/>
<stop offset="0.32" stop-color="#32ADE1"/>
<stop offset="0.86" stop-color="#4DC1EF"/>
<stop offset="1" stop-color="#56C8F3"/>
</linearGradient>
<linearGradient id="paint17_linear_433_4061" x1="126.175" y1="-20.8698" x2="86.35" y2="133.602" gradientUnits="userSpaceOnUse">
<stop stop-color="#28A6DD"/>
<stop offset="0.32" stop-color="#32ADE1"/>
<stop offset="0.86" stop-color="#4DC1EF"/>
<stop offset="1" stop-color="#56C8F3"/>
</linearGradient>
<clipPath id="clip0_433_4061">
<rect width="206" height="207" fill="white"/>
</clipPath>
</defs>
</svg>
