<svg xmlns="http://www.w3.org/2000/svg" enable-background="new 0 0 53 53" viewBox="0 0 53 53" width="256" height="256"><path fill="#fcb73e" d="M8.2772169,29.6452732c0,1.9423618-1.8122854,3.518362-1.8122854,3.518362
						s-1.814455-1.5760002-1.814455-3.518362c0-1.9423504,1.814455-3.5161819,1.814455-3.5161819
						S8.2772169,27.7029228,8.2772169,29.6452732z" class="colorfcb73e svgShape"></path><path fill="#fcb73e" d="M6.7914605 24.5598965v2.2111702H6.1367779v-2.2111702c0-.1807842.1465554-.3273392.3273411-.3273392h5e-7C6.6449051 24.2325573 6.7914605 24.3791122 6.7914605 24.5598965zM6.8014674 31.7622223v15.752224H6.126771v-15.752224c0-.1863117.1510358-.337347.337348-.337347h5e-7C6.6504316 31.4248753 6.8014674 31.5759106 6.8014674 31.7622223zM10.4501524 29.5182095v2.8615131H9.7954693v-2.8615131c0-.1807861.1465559-.3273411.3273411-.3273411h.000001C10.3035965 29.1908684 10.4501524 29.3374233 10.4501524 29.5182095z" class="colorfcb73e svgShape"></path><path fill="#fcb73e" d="M10.4501524 31.9499531v2.3325634c0 1.3852348-.8280916 2.6360626-2.1027641 3.1780167l-1.5564728.6611786v-3.9584198c.8368702-1.5661659 2.2607698-1.7458267 3.1194544-2.2133389H10.4501524zM2.5004668 29.5182095v2.8615131h.6546826v-2.8615131c0-.1807861-.1465557-.3273411-.3273411-.3273411H2.8278077C2.6470222 29.1908684 2.5004668 29.3374233 2.5004668 29.5182095z" class="colorfcb73e svgShape"></path><path fill="#fcb73e" d="M2.5004668 31.9499531v2.3325634c0 1.3852348.8280914 2.6360626 2.1027646 3.1780167l1.5564718.6611786v-3.9584198c-.8368697-1.5661659-2.2607698-1.7458267-3.1194541-2.2133389H2.5004668zM10.4493666 38.1257401v1.8859978c0 1.3852348-.8280916 2.6360626-2.1027908 3.1780167L6.790103 43.8509331v-3.9584236c.3880463-.7262077 1.0101805-1.2985153 1.7667704-1.6258545 1.3292322-.5637321 1.2827978-.5874825 1.4459381-.5874825C10.249918 37.6791725 10.4493666 37.8786201 10.4493666 38.1257401zM6.1592898 39.8925095v3.9584236l-1.5565252-.6611786C3.3281181 42.6478004 2.5 41.3969727 2.5 40.0117378v-1.8859978c0-.3316765.3529258-.5400505.6243565-.4097061C3.8682973 38.1236496 5.3285866 38.3378906 6.1592898 39.8925095zM28.182682 29.6452732c0 1.9423618-1.8122845 3.518362-1.8122845 3.518362s-1.8144569-1.5760002-1.8144569-3.518362c0-1.9423504 1.8144569-3.5161819 1.8144569-3.5161819S28.182682 27.7029228 28.182682 29.6452732z" class="colorfcb73e svgShape"></path><path fill="#fcb73e" d="M26.6969261 24.5598965v2.2111702h-.6546841v-2.2111702c0-.1807842.1465569-.3273392.3273411-.3273392h.0000019C26.5503693 24.2325573 26.6969261 24.3791122 26.6969261 24.5598965zM26.7069321 31.7622223v15.752224h-.674696v-15.752224c0-.1863117.1510353-.337347.337347-.337347h.0000019C26.5558968 31.4248753 26.7069321 31.5759106 26.7069321 31.7622223zM30.3556175 29.5182095v2.8615131h-.6546822v-2.8615131c0-.1807861.1465549-.3273411.3273411-.3273411l0 0C30.2090626 29.1908684 30.3556175 29.3374233 30.3556175 29.5182095z" class="colorfcb73e svgShape"></path><path fill="#fcb73e" d="M30.3556175 31.9499531v2.3325634c0 1.3852348-.8280926 2.6360626-2.1027641 3.1780167l-1.5564728.6611786v-3.9584198c.3880463-.7262115 1.0101795-1.2985191 1.7667427-1.6258583l1.3527107-.5874805H30.3556175zM22.4059315 29.5182095v2.8615131h.6546822v-2.8615131c0-.1807861-.1465549-.3273411-.3273411-.3273411l0 0C22.5524864 29.1908684 22.4059315 29.3374233 22.4059315 29.5182095z" class="colorfcb73e svgShape"></path><path fill="#fcb73e" d="M22.4059315 31.9499531v2.3325634c0 1.3852348.8280926 2.6360626 2.1027641 3.1780167l1.5564728.6611786v-3.9584198c-.3880463-.7262115-1.0101795-1.2985191-1.7667427-1.6258583l-1.3527107-.5874805H22.4059315zM30.3548317 38.1257401v1.8859978c0 1.3852348-.8280926 2.6360626-2.1027908 3.1780167l-1.5564728.6611786v-3.9584236c.8311882-1.5555305 2.2594414-1.7515717 3.0349331-2.1764755C30.0051899 37.5892029 30.3548317 37.7907562 30.3548317 38.1257401zM26.0647545 39.8925095v3.9584236l-1.5565243-.6611786c-1.2746468-.541954-2.102766-1.7927818-2.102766-3.1780167v-1.8859978c0-.2471199.2016182-.4465675.4465828-.4465675.0628738 0 .123579.0108376.1777744.0368614l1.268137.550621C25.0545216 38.5939941 25.6767082 39.1663017 26.0647545 39.8925095z" class="colorfcb73e svgShape"></path><path fill="#fd982e" d="M30.1250706 41.2539902c-.7474556 1.9209595-2.5249424 2.088356-3.4293213 2.5969429v-3.9586868c.1764679-.3296089.3995132-.6292648.665884-.8822861v2.0742226c0 .8023834.819025 1.3417473 1.5548134 1.0287819C29.3859482 41.913208 29.7954597 41.6168823 30.1250706 41.2539902zM22.6029148 41.2539902c.7474537 1.9209595 2.5249424 2.088356 3.4293213 2.5969429v-3.9586868c-.1764698-.3296089-.3995152-.6292648-.665884-.8822861v2.0742226c0 .8023834-.819025 1.3417473-1.5548153 1.0287819C23.3420372 41.913208 22.9325256 41.6168823 22.6029148 41.2539902zM30.1250706 35.5275726c-.7474556 1.9209633-2.5249424 2.088356-3.4293213 2.5969467v-3.9586906c.1764679-.3296089.3995132-.6292648.665884-.8822823v2.0742226c0 .8023834.819025 1.3417473 1.5548134 1.0287781C29.3859482 36.1867905 29.7954597 35.8904686 30.1250706 35.5275726zM22.6029148 35.5275726c.7474537 1.9209633 2.5249424 2.088356 3.4293213 2.5969467v-3.9586906c-.1764698-.3296089-.3995152-.6292648-.665884-.8822823v2.0742226c0 .8023834-.819025 1.3417473-1.5548153 1.0287781C23.3420372 36.1867905 22.9325256 35.8904686 22.6029148 35.5275726z" class="colorfd982e svgShape"></path><path fill="#fcb73e" d="M18.093647,29.6452732c0,1.9423618-1.8122864,3.518362-1.8122864,3.518362
							s-1.814455-1.5760002-1.814455-3.518362c0-1.9423504,1.814455-3.5161819,1.814455-3.5161819
							S18.093647,27.7029228,18.093647,29.6452732z" class="colorfcb73e svgShape"></path><path fill="#fcb73e" d="M16.6078892 24.5598965v2.2111702H15.953207v-2.2111702c0-.1807842.1465569-.3273392.3273411-.3273392l0 0C16.4613342 24.2325573 16.6078892 24.3791122 16.6078892 24.5598965zM16.617897 31.7622223v15.752224h-.6746969v-15.752224c0-.1863117.1510363-.337347.337348-.337347l0 0C16.4668617 31.4248753 16.617897 31.5759106 16.617897 31.7622223zM20.2665825 29.5182095v2.8615131h-.6546841v-2.8615131c0-.1807861.1465569-.3273411.3273411-.3273411h.0000019C20.1200256 29.1908684 20.2665825 29.3374233 20.2665825 29.5182095z" class="colorfcb73e svgShape"></path><path fill="#fcb73e" d="M20.2665825 31.9499531v2.3325634c0 1.3852348-.8280926 2.6360626-2.102766 3.1780167l-1.5564709.6611786v-3.9584198c.8368702-1.5661659 2.2607689-1.7458267 3.1194534-2.2133389H20.2665825zM12.3168964 29.5182095v2.8615131h.6546822v-2.8615131c0-.1807861-.1465549-.3273411-.3273411-.3273411l0 0C12.4634514 29.1908684 12.3168964 29.3374233 12.3168964 29.5182095z" class="colorfcb73e svgShape"></path><path fill="#fcb73e" d="M12.3168964 31.9499531v2.3325634c0 1.3852348.8280916 2.6360626 2.1027641 3.1780167l1.5564728.6611786v-3.9584198c-.8368702-1.5661659-2.2607708-1.7458267-3.1194544-2.2133389H12.3168964zM20.2657967 38.1257401v1.8859978c0 1.3852348-.8280926 2.6360626-2.1027927 3.1780167l-1.5564709.6611786v-3.9584236c.8311882-1.5555305 2.2594414-1.7515717 3.0349331-2.1764755C19.9161549 37.5892029 20.2657967 37.7907562 20.2657967 38.1257401zM15.9757195 39.8925095v3.9584236l-1.5565252-.6611786c-1.2746468-.541954-2.1027651-1.7927818-2.1027651-3.1780167v-1.8859978c0-.2471199.2016182-.4465675.4465818-.4465675.0628748 0 .12358.0108376.1777754.0368614l1.268136.550621C14.9654865 38.5939941 15.5876732 39.1663017 15.9757195 39.8925095z" class="colorfcb73e svgShape"></path><path fill="#fd982e" d="M20.036581 41.2539902c-.7474537 1.9209595-2.5249405 2.088356-3.4293194 2.5969429v-3.9586868c.1764679-.3296089.3995132-.6292648.665884-.8822861v2.0742226c0 .8023834.819025 1.3417473 1.5548134 1.0287819C19.2974606 41.913208 19.7069721 41.6168823 20.036581 41.2539902zM12.5144272 41.2539902c.7474537 1.9209595 2.5249414 2.088356 3.4293203 2.5969429v-3.9586868c-.1764688-.3296089-.3995142-.6292648-.665884-.8822861v2.0742226c0 .8023834-.819025 1.3417473-1.5548143 1.0287819C13.2535486 41.913208 12.8440371 41.6168823 12.5144272 41.2539902zM20.036581 35.5275726c-.7474537 1.9209633-2.5249405 2.088356-3.4293194 2.5969467v-3.9586906c.1764679-.3296089.3995132-.6292648.665884-.8822823v2.0742226c0 .8023834.819025 1.3417473 1.5548134 1.0287781C19.2974606 36.1867905 19.7069721 35.8904686 20.036581 35.5275726zM12.5144272 35.5275726c.332942.8556633.998826 1.5648308 1.874507 1.9377251l1.5548134.6592216v-3.9586906c-.1764688-.3296089-.3995142-.6292648-.665884-.8822823v2.0742226c0 .8023834-.819025 1.3417473-1.5548143 1.0287781C13.2535486 36.1867905 12.8440371 35.8904686 12.5144272 35.5275726z" class="colorfd982e svgShape"></path><g fill="#000000" class="color000 svgShape"><path fill="#fcb73e" d="M38.2492599,29.6452732c0,1.9423618-1.8122864,3.518362-1.8122864,3.518362
							s-1.8144569-1.5760002-1.8144569-3.518362c0-1.9423504,1.8144569-3.5161819,1.8144569-3.5161819
							S38.2492599,27.7029228,38.2492599,29.6452732z" class="colorfcb73e svgShape"></path><path fill="#fcb73e" d="M36.763504 24.5598965v2.2111702h-.654686v-2.2111702c0-.1807842.1465569-.3273392.327343-.3273392l0 0C36.6169472 24.2325573 36.763504 24.3791122 36.763504 24.5598965zM36.77351 31.7622223v15.752224h-.6746979v-15.752224c0-.1863117.1510353-.337347.3373489-.337347l0 0C36.6224747 31.4248753 36.77351 31.5759106 36.77351 31.7622223zM40.4221954 29.5182095v2.8615131h-.654686v-2.8615131c0-.1807861.1465569-.3273411.327343-.3273411l0 0C40.2756386 29.1908684 40.4221954 29.3374233 40.4221954 29.5182095z" class="colorfcb73e svgShape"></path><path fill="#fcb73e" d="M40.4221954 31.9499531v2.3325634c0 1.3852348-.8280945 2.6360626-2.1027641 3.1780167l-1.5564728.6611786v-3.9584198c.8368683-1.5661659 2.2607689-1.7458267 3.1194534-2.2133389H40.4221954zM32.4725075 29.5182095v2.8615131h.6546822v-2.8615131c0-.1807861-.146553-.3273411-.3273392-.3273411l0 0C32.6190643 29.1908684 32.4725075 29.3374233 32.4725075 29.5182095z" class="colorfcb73e svgShape"></path><path fill="#fcb73e" d="M32.4725075 31.9499531v2.3325634c0 1.3852348.8280907 2.6360626 2.1027641 3.1780167l1.5564728.6611786v-3.9584198c-.8368683-1.5661659-2.2607689-1.7458267-3.1194534-2.2133389H32.4725075zM40.4214096 38.1257401v1.8859978c0 1.3852348-.8280945 2.6360626-2.1027908 3.1780167l-1.5564728.6611786v-3.9584236c.8311882-1.5555305 2.2594414-1.7515717 3.0349312-2.1764755.056366-.0260239.1170692-.0368614.1777763-.0368614C40.2219582 37.6791725 40.4214096 37.8786201 40.4214096 38.1257401zM36.1313324 39.8925095v3.9584236l-1.5565262-.6611786c-1.2746468-.541954-2.1027641-1.7927818-2.1027641-3.1780167v-1.8859978c0-.3316765.3529243-.5400505.6243553-.4097061C33.8403397 38.1236496 35.3006287 38.3378906 36.1313324 39.8925095z" class="colorfcb73e svgShape"></path><path fill="#fd982e" d="M40.1921921 41.2539902c-.7474518 1.9209595-2.5249405 2.088356-3.4293175 2.5969429v-3.9586868c.1764679-.3296089.3995132-.6292648.6658821-.8822861v2.0742226c0 .8023834.8190269 1.3417473 1.5548134 1.0287819C39.4530716 41.913208 39.8625832 41.6168823 40.1921921 41.2539902zM32.6700401 41.2539902c.7474518 1.9209595 2.5249405 2.088356 3.4293213 2.5969429v-3.9586868c-.1764717-.3296089-.3995171-.6292648-.6658859-.8822861v2.0742226c0 .8023834-.8190231 1.3417473-1.5548134 1.0287819C33.4091606 41.913208 32.999649 41.6168823 32.6700401 41.2539902zM40.1921921 35.5275726c-.7474518 1.9209633-2.5249405 2.088356-3.4293175 2.5969467v-3.9586906c.1764679-.3296089.3995132-.6292648.6658821-.8822823v2.0742226c0 .8023834.8190269 1.3417473 1.5548134 1.0287781C39.4530716 36.1867905 39.8625832 35.8904686 40.1921921 35.5275726zM32.6700401 35.5275726c.7474518 1.9209633 2.5249405 2.088356 3.4293213 2.5969467v-3.9586906c-.1764717-.3296089-.3995171-.6292648-.6658859-.8822823v2.0742226c0 .8023834-.8190231 1.3417473-1.5548134 1.0287781C33.4091606 36.1867905 32.999649 35.8904686 32.6700401 35.5275726z" class="colorfd982e svgShape"></path></g><g fill="#000000" class="color000 svgShape"><path fill="#fcb73e" d="M48.3270645,29.6452732c0,1.9423618-1.8122864,3.518362-1.8122864,3.518362
							s-1.8144531-1.5760002-1.8144531-3.518362c0-1.9423504,1.8144531-3.5161819,1.8144531-3.5161819
							S48.3270645,27.7029228,48.3270645,29.6452732z" class="colorfcb73e svgShape"></path><path fill="#fcb73e" d="M46.8413086 24.5598965v2.2111702h-.6546822v-2.2111702c0-.1807842.146553-.3273392.3273392-.3273392l0 0C46.6947517 24.2325573 46.8413086 24.3791122 46.8413086 24.5598965zM46.8513145 31.7622223v15.752224h-.6746941v-15.752224c0-.1863117.1510353-.337347.3373451-.337347l0 0C46.7002792 31.4248753 46.8513145 31.5759106 46.8513145 31.7622223zM50.5 29.5182095v2.8615131h-.6546822v-2.8615131c0-.1807861.1465569-.3273411.3273392-.3273411h.0000038C50.3534431 29.1908684 50.5 29.3374233 50.5 29.5182095z" class="colorfcb73e svgShape"></path><path fill="#fcb73e" d="M50.5 31.9499531v2.3325634c0 1.3852348-.8280907 2.6360626-2.1027641 3.1780167l-1.5564728.6611786v-3.9584198c.8368683-1.5661659 2.2607689-1.7458267 3.1194534-2.2133389H50.5zM42.5503159 29.5182095v2.8615131h.6546822v-2.8615131c0-.1807861-.1465569-.3273411-.327343-.3273411l0 0C42.6968689 29.1908684 42.5503159 29.3374233 42.5503159 29.5182095z" class="colorfcb73e svgShape"></path><path fill="#fcb73e" d="M42.5503159 31.9499531v2.3325634c0 1.3852348.8280907 2.6360626 2.1027641 3.1780167l1.5564728.6611786v-3.9584198c-.8368721-1.5661659-2.2607727-1.7458267-3.1194572-2.2133389H42.5503159zM50.4992142 38.1257401v1.8859978c0 1.3852348-.8280907 2.6360626-2.1027908 3.1780167l-1.5564728.6611786v-3.9584236c.8311882-1.5555305 2.2594414-1.7515717 3.034935-2.1764755C50.1495705 37.5892029 50.4992142 37.7907562 50.4992142 38.1257401zM46.209137 39.8925095v3.9584236l-1.5565262-.6611786c-1.2746468-.541954-2.1027641-1.7927818-2.1027641-3.1780167v-1.8859978c0-.3316765.3529282-.5400505.6243591-.4097061l1.2681351.550621C45.1989059 38.5939941 45.8210907 39.1663017 46.209137 39.8925095z" class="colorfcb73e svgShape"></path><path fill="#fd982e" d="M50.2700005 41.2539902c-.7474556 1.9209595-2.5249405 2.088356-3.4293213 2.5969429v-3.9586868c.1764679-.3296089.3995132-.6292648.6658859-.8822861v2.0742226c0 .8023834.8190231 1.3417473 1.5548134 1.0287819C49.5308762 41.913208 49.9403915 41.6168823 50.2700005 41.2539902zM42.7478447 41.2539902c.7474556 1.9209595 2.5249405 2.088356 3.4293213 2.5969429v-3.9586868c-.1764679-.3296089-.3995132-.6292648-.6658859-.8822861v2.0742226c0 .8023834-.8190231 1.3417473-1.5548134 1.0287819C43.486969 41.913208 43.0774536 41.6168823 42.7478447 41.2539902zM50.2700005 35.5275726c-.7474556 1.9209633-2.5249405 2.088356-3.4293213 2.5969467v-3.9586906c.1764679-.3296089.3995132-.6292648.6658859-.8822823v2.0742226c0 .8023834.8190231 1.3417473 1.5548134 1.0287781C49.5308762 36.1867905 49.9403915 35.8904686 50.2700005 35.5275726zM42.7478447 35.5275726c.7474556 1.9209633 2.5249405 2.088356 3.4293213 2.5969467v-3.9586906c-.1764679-.3296089-.3995132-.6292648-.6658859-.8822823v2.0742226c0 .8023834-.8190231 1.3417473-1.5548134 1.0287781C43.486969 36.1867905 43.0774536 35.8904686 42.7478447 35.5275726z" class="colorfd982e svgShape"></path></g><g fill="#000000" class="color000 svgShape"><path fill="#fd982e" d="M10.2251968 41.2539902c-.7474546 1.9209595-2.5249419 2.088356-3.4293213 2.5969429v-3.9586868c.1764693-.3296089.3995147-.6292648.6658845-.8822861v2.0742226c0 .8023834.8190246 1.3417473 1.5548139 1.0287819C9.4860744 41.913208 9.895587 41.6168823 10.2251968 41.2539902zM2.703042 41.2539902c.7474542 1.9209595 2.5249414 2.088356 3.4293208 2.5969429v-3.9586868c-.1764693-.3296089-.3995147-.6292648-.6658845-.8822861v2.0742226c0 .8023834-.8190246 1.3417473-1.5548139 1.0287819C3.4421639 41.913208 3.0326517 41.6168823 2.703042 41.2539902zM10.2251968 35.5275726c-.7474546 1.9209633-2.5249419 2.088356-3.4293213 2.5969467v-3.9586906c.1764693-.3296089.3995147-.6292648.6658845-.8822823v2.0742226c0 .8023834.8190246 1.3417473 1.5548139 1.0287781C9.4860744 36.1867905 9.895587 35.8904686 10.2251968 35.5275726zM2.703042 35.5275726c.7474542 1.9209633 2.5249414 2.088356 3.4293208 2.5969467v-3.9586906c-.1764693-.3296089-.3995147-.6292648-.6658845-.8822823v2.0742226c0 .8023834-.8190246 1.3417473-1.5548139 1.0287781C3.4421639 36.1867905 3.0326517 35.8904686 2.703042 35.5275726z" class="colorfd982e svgShape"></path></g><g fill="#000000" class="color000 svgShape"><path fill="#c7754f" d="M2.5000923,47.6567421c0,0,2.2838728-2.6774521,6.2954178-1.7787933
					c0,0,3.1221504,1.0654221,4.9750586,1.0005722c1.8529072-0.0648537,4.8360901-1.1395378,4.8360901-1.1395378
					c0.2313156-0.0388222,2.554224-1.3181839,4.9163818,0.4323425c0.0597935,0.0443115,0.1199818,0.0872192,0.1804142,0.1287537
					c1.6768417,1.1524925,3.9163418,1.1524925,5.5931816,0c0.0604343-0.0415344,0.1206207-0.0844421,0.1804142-0.1287537
					c1.3835049-1.0252762,2.6280403-0.9048347,2.6280403-0.9048347c0.806015-0.1297035,2.2883415,0.4724922,2.2883415,0.4724922
					s2.9831848,1.0746841,4.8360901,1.1395378c1.8529091,0.0648499,4.9750595-1.0005722,4.9750595-1.0005722
					C48.2161293,44.97929,50.5,47.6567421,50.5,47.6567421v2.6725693H2.5000923V47.6567421z" class="colorc7754f svgShape"></path><path fill="#46cc6b" d="M50.4999084,47.659008v2.010006c0,0-2.2799644-2.679985-6.2999763-1.7799644
					c0,0-3.1199875,1.0700073-4.9699593,1c-1.8500328-0.0599976-4.8400192-1.1400146-4.8400192-1.1400146
					s-1.4799767-0.6000328-2.2799644-0.4700279c0,0-1.2499962-0.1199951-2.6299992,0.9000206
					c-0.0599976,0.0499878-0.1199951,0.0900269-0.1800537,0.1300049c-1.6799889,1.1500244-3.9199753,1.1500244-5.5999641,0
					c-0.0599976-0.039978-0.1199951-0.0800171-0.1799927-0.1300049c-1.3800011-1.0200157-2.6199894-0.9000206-2.6199894-0.9000206
					c-0.8099957-0.1300049-2.2899742,0.4700279-2.2899742,0.4700279s-2.9900455,1.0800171-4.8400173,1.1400146
					c-1.8499727,0.0700073-4.9700222-1-4.9700222-1C4.780025,46.9890289,2.5,49.669014,2.5,49.669014v-2.010006
					c0,0,2.280025-2.679985,6.2999763-1.7799644c0,0,3.1200495,1.0599976,4.9700222,1
					c1.8499718-0.0700073,4.8400173-1.1400146,4.8400173-1.1400146c0.2542362-0.0424919,2.5664501-1.3021965,4.9099636,0.4299927
					c0.0599976,0.0499878,0.1199951,0.0900269,0.1799927,0.1300049c1.6799889,1.1500244,3.9199753,1.1500244,5.5999641,0
					c0.0600586-0.039978,0.1200562-0.0800171,0.1800537-0.1300049c1.380003-1.0200157,2.6299992-0.8999596,2.6299992-0.8999596
					c0.7999878-0.1300049,2.2799644,0.4699669,2.2799644,0.4699669s2.9899864,1.0700073,4.8400192,1.1400146
					c1.8499718,0.0599976,4.9699593-1,4.9699593-1C48.219944,44.979023,50.4999084,47.659008,50.4999084,47.659008z" class="color46cc6b svgShape"></path></g></svg>