<svg id="SvgjsSvg1025" width="256" height="256" xmlns="http://www.w3.org/2000/svg" version="1.1" xmlns:xlink="http://www.w3.org/1999/xlink" xmlns:svgjs="http://svgjs.com/svgjs"><defs id="SvgjsDefs1026"></defs><g id="SvgjsG1027"><svg xmlns="http://www.w3.org/2000/svg" enable-background="new 0 0 512 512" viewBox="0 0 512 512" width="256" height="256"><path fill="#3e3e42" fill-rule="evenodd" d="M203.122,319.387c70.091,0,134.865,33.644,175.354,89.448c1.935,2.667-0.068,6.34-3.234,6.338v0.006H31.002
			c-3.191,0-5.299-3.68-3.097-6.532c20.042-27.525,46.404-50.149,76.953-65.731C134.354,327.872,167.749,319.387,203.122,319.387z" clip-rule="evenodd" class="color3e3e42 svgShape"></path><path fill="#323235" fill-rule="evenodd" d="M203.122,319.387c70.091,0,134.865,33.644,175.354,89.448c1.935,2.667-0.068,6.34-3.234,6.338v0.006h-172.12
			V319.387z" clip-rule="evenodd" class="color323235 svgShape"></path><path fill="#00e499" fill-rule="evenodd" d="M128.36,72.068c55.696,37.28,77.496,108.858,51.882,171.094l-1.17,2.843l-3.033-0.406
			C84.231,233.309,28.902,137.506,64.162,51.848l1.171-2.844l3.032,0.406C89.718,52.27,110.299,59.979,128.36,72.068z" clip-rule="evenodd" class="color00e499 svgShape"></path><path fill="#00cd8a" fill-rule="evenodd" d="M176.045,245.601l-0.005-0.001c-21.353-2.86-41.934-10.569-59.995-22.658
			C60.083,185.484,38.668,113.781,64.162,51.848l0.585-1.422L176.045,245.601z" clip-rule="evenodd" class="color00cd8a svgShape"></path><path fill="#00e499" fill-rule="evenodd" d="M236.492,114.889c22.144-38.354,60.451-63.564,103.621-69.346l3.033-0.406l1.171,2.844
			c16.58,40.285,13.89,86.048-8.257,124.407l-0.007-0.004c-22.156,38.367-60.438,63.57-103.614,69.35l-3.033,0.406l-1.171-2.843
			C211.654,199.011,214.346,153.247,236.492,114.889z" clip-rule="evenodd" class="color00e499 svgShape"></path><path fill="#00cd8a" fill-rule="evenodd" d="M343.145,45.136l1.171,2.844c16.58,40.285,13.89,86.048-8.257,124.407l-0.007-0.004
			c-22.156,38.367-60.438,63.569-103.614,69.35l-1.516,0.203L343.145,45.136z" clip-rule="evenodd" class="color00cd8a svgShape"></path><circle cx="376.938" cy="358.779" r="108.064" fill="#ffd266" fill-rule="evenodd" clip-rule="evenodd" transform="rotate(-76.562 376.923 358.786)" class="colorffd266 svgShape"></circle><path fill="#3e3e42" fill-rule="evenodd" d="M411.205,309.633c5.266,0,5.266,8,0,8h-49.92c-15.606,0-23.85,19.052-12.558,30.344
			c3.226,3.226,7.672,5.228,12.558,5.228h32.693c22.704,0,34.536,27.678,18.214,44c-4.672,4.671-11.119,7.572-18.214,7.572h-12.347
			v19.58c0,5.266-8,5.266-8,0v-19.58h-29.574c-5.266,0-5.266-8,0-8h49.92c15.605,0,23.85-19.052,12.558-30.344
			c-3.226-3.226-7.671-5.228-12.558-5.228h-32.693c-22.705,0-34.536-27.678-18.214-44c4.671-4.672,11.119-7.572,18.214-7.572h12.346
			v-19.58c0-5.266,8-5.266,8,0v19.58H411.205z" clip-rule="evenodd" class="color3e3e42 svgShape"></path><path fill="#c49e6c" fill-rule="evenodd" d="M142.068,189.896c-2.634-4.549,4.278-8.546,6.906-4l50.148,86.858v-47.319c0-5.266,8-5.266,8,0v47.319
			l50.148-86.858c2.627-4.544,9.539-0.552,6.906,4l-57.054,98.82v34.672c0,5.266-8,5.266-8,0v-34.672L142.068,189.896z" clip-rule="evenodd" class="colorc49e6c svgShape"></path><path fill="#e6bd5c" fill-rule="evenodd" d="M452.602,358.779c0,53.818-39.515,98.987-91.864,106.858c65.441,9.836,124.264-40.749,124.264-106.858
			c0-66.109-58.824-116.694-124.264-106.858C413.088,259.792,452.602,304.961,452.602,358.779z" clip-rule="evenodd" class="colore6bd5c svgShape"></path></svg></g></svg>