<svg viewBox="0 0 56 56" xmlns="http://www.w3.org/2000/svg"><path fill-rule="evenodd" clip-rule="evenodd" d="M32.547 20.296c-.089-2.653-1.98-4.772-4.298-4.772-2.319 0-4.209 2.12-4.297 4.772h8.595Zm6.827 17.618a2.243 2.243 0 0 1-1.146 1.762 2.69 2.69 0 0 0-.062-1.011 2.654 2.654 0 0 0-2.758-2c-.38.028-.734.135-1.05.304l-2.657-3.46a4.375 4.375 0 0 0 1.31-4.042l1.23-.399a2.052 2.052 0 0 0 3.563.184 2.087 2.087 0 0 0-.606-2.873 2.04 2.04 0 0 0-1.12-.336 2.071 2.071 0 0 0-2.063 2.088l-1.287.417a4.35 4.35 0 0 0-3.984-2.639c-.357 0-.706.046-1.042.129l-.296-.863c.312-.227.537-.575.596-.989a1.483 1.483 0 0 0-1.46-1.697c-.719 0-1.348.531-1.455 1.27a1.483 1.483 0 0 0 1.404 1.697l.314.912a4.377 4.377 0 0 0-1.597 1.367l-5.898-3.517a2.604 2.604 0 0 0-1.211-2.873 2.528 2.528 0 0 0-.882-.31 2.561 2.561 0 0 0-.395-.035c-.19 0-.377.021-.56.062l-.01-.229a.506.506 0 0 1 .503-.537h5.579C22.47 16.793 25.067 14 28.249 14c3.183 0 5.779 2.793 5.916 6.296h5.571c.284 0 .514.223.514.499v.025l-.868 16.95-.008.144Zm-6.42 1.607c.013.166.04.326.08.481L19.25 40c-1.204-.044-2.075-.897-2.195-2.072l-.012-.212L16.5 26.16a2.538 2.538 0 0 0 .964-.067 2.548 2.548 0 0 0 1.294-.809c.051-.06.103-.12.15-.185l5.827 3.477a4.346 4.346 0 0 0-.31 1.09 4.39 4.39 0 0 0 .727 3.116l-2.254 1.946a1.657 1.657 0 0 0-.779-.196c-.816 0-1.529.603-1.65 1.44a1.68 1.68 0 0 0 1.654 1.924c.816 0 1.53-.603 1.65-1.44a1.682 1.682 0 0 0-.19-1.051l2.193-1.894a4.312 4.312 0 0 0 2.963 1.174c.789 0 1.542-.218 2.193-.602l2.675 3.482c-.321.368-.54.826-.622 1.327a2.704 2.704 0 0 0-.031.63ZM16.826 24.65a1.075 1.075 0 1 0 0-2.15 1.075 1.075 0 0 0 0 2.15Zm19.925 14.7a1.15 1.15 0 1 1-2.3 0 1.15 1.15 0 0 1 2.3 0Zm-8.025-6.2a2.875 2.875 0 1 0 0-5.75 2.875 2.875 0 0 0 0 5.75Z" fill="currentColor"></path></svg>