<svg viewBox="0 0 56 56" xmlns="http://www.w3.org/2000/svg"><path d="M22 19v3.25a.75.75 0 0 0 1.493.102l.007-.102V19H39a2 2 0 0 1 2 2v3.4c-1.972 0-3.571 1.612-3.571 3.6 0 1.924 1.497 3.496 3.381 3.595l.19.005V35a2 2 0 0 1-2 2H23.5v-3.25a.75.75 0 0 0-.648-.743L22.75 33a.75.75 0 0 0-.743.648L22 33.75V37h-4a2 2 0 0 1-2-2v-3.4c1.972 0 3.571-1.612 3.571-3.6S17.972 24.4 16 24.4V21a2 2 0 0 1 2-2h4Zm.75 6a.75.75 0 0 0-.743.648L22 25.75v4.5a.75.75 0 0 0 1.493.102l.007-.102v-4.5a.75.75 0 0 0-.75-.75Z" fill="currentColor" fill-rule="evenodd" opacity=".96"></path></svg>