<svg viewBox="0 0 56 56" xmlns="http://www.w3.org/2000/svg"><path d="M28 15c7.18 0 13 5.82 13 13s-5.82 13-13 13-13-5.82-13-13 5.82-13 13-13Zm0 1.25c-6.49 0-11.75 5.26-11.75 11.75S21.51 39.75 28 39.75 39.75 34.49 39.75 28 34.49 16.25 28 16.25Zm0 1.5c5.66 0 10.25 4.59 10.25 10.25S33.66 38.25 28 38.25 17.75 33.66 17.75 28 22.34 17.75 28 17.75ZM27.92 23c-1.887.008-3.398 1.138-3.525 2.672-.084 1.111.506 2.014 1.728 2.68l.108.053.16.069.277.111.496.189.515.185.447.149.332.102c1.404.456 2.083 1.189 1.92 1.999-.155.776-1.066 1.302-2.372 1.318a4.916 4.916 0 0 1-2.292-.686l-.232-.143-.357-.25-.07-.044a.422.422 0 0 0-.432.014l-.06.05-.067.08-.41.562-.047.074c-.087.17-.022.33.136.454.343.267.79.553 1.098.7.84.4 1.753.62 2.72.655a5.07 5.07 0 0 0 2.027-.325c1.097-.436 1.812-1.314 1.955-2.407.232-1.778-.987-2.9-4.044-3.812-1.344-.43-1.933-.957-1.92-1.65.05-.764.846-1.349 1.938-1.369.9.017 1.751.245 2.535.734.191.113.385.104.525-.033l.056-.066.367-.546.04-.072c.073-.172.02-.366-.17-.496l-.06-.039-.157-.092-.093-.05-.271-.137a5.697 5.697 0 0 0-.38-.17A6.6 6.6 0 0 0 27.92 23Z" fill-rule="evenodd" fill="currentColor"></path></svg>