<svg viewBox="0 0 56 56" xmlns="http://www.w3.org/2000/svg"><path d="M39 32v7a1 1 0 0 1-1 1h-2a1 1 0 0 1-1-1v-7h4Zm-5.5 0v6a2 2 0 0 1-2 2h-12a2 2 0 0 1-2-2v-6h16Zm-17.465-5.803v1.785A1.448 1.448 0 0 0 15.61 29c0 .828.714 1.5 1.594 1.5h.295V32h-.333C15.417 32 14 30.657 14 29c0-1.28.845-2.371 2.035-2.803Zm24.43 0c1.19.432 2.035 1.524 2.035 2.803 0 1.657-1.418 3-3.167 3H39v-1.5h.517c.88 0 1.594-.672 1.594-1.5 0-.494-.254-.933-.646-1.206v-1.597ZM38 23a1 1 0 0 1 1 1v6.5h-4V24a1 1 0 0 1 1-1h2Zm-12.5-7a4 4 0 0 1 4 4h2a2 2 0 0 1 2 2v8.5h-16V22a2 2 0 0 1 2-2h2a4 4 0 0 1 4-4Zm0 1.5A2.5 2.5 0 0 0 23 20h5a2.5 2.5 0 0 0-2.5-2.5Z" fill-rule="nonzero" fill="currentColor"></path></svg>