<svg viewBox="0 0 56 56" xmlns="http://www.w3.org/2000/svg"><path d="M36.868 29.796c2.834 0 5.132 2.284 5.132 5.102C42 37.716 39.702 40 36.868 40c-2.835 0-5.133-2.284-5.133-5.102 0-2.818 2.298-5.102 5.133-5.102ZM28.143 15c2.267 0 4.106 1.827 4.106 4.082h2.677a2.05 2.05 0 0 1 2.02 1.679l1.39 7.665a6.733 6.733 0 0 0-1.468-.16c-3.685 0-6.672 2.969-6.672 6.632 0 .905.182 1.767.512 2.553l-11.672-.1a2.047 2.047 0 0 1-2.013-2.347l2.172-14.189a2.05 2.05 0 0 1 2.03-1.733h2.812c0-2.255 1.838-4.082 4.106-4.082Zm8.776 17.347a.769.769 0 0 0-.763.661l-.007.104v1.02H35.02a.768.768 0 0 0-.77.766c0 .387.29.708.666.758l.104.007h1.128l.001 1.02c0 .423.345.766.77.766.39 0 .712-.288.763-.661l.007-.104-.001-1.02h.925c.425 0 .77-.343.77-.766a.767.767 0 0 0-.666-.758l-.104-.007-.925-.001v-1.02a.768.768 0 0 0-.769-.765ZM28.143 16.53a2.559 2.559 0 0 0-2.566 2.55h5.132a2.559 2.559 0 0 0-2.566-2.55Z" fill-rule="evenodd" fill="currentColor"></path></svg>