<svg viewBox="0 0 56 56" xmlns="http://www.w3.org/2000/svg"><path d="m33.665 25.495.138.107a4.492 4.492 0 0 0 2.697.898l.212-.005a4.475 4.475 0 0 0 1.788-.463V37a2 2 0 0 1-2 2h-17a2 2 0 0 1-2-2V26.032c.602.3 1.281.468 2 .468l.213-.005a4.491 4.491 0 0 0 2.484-.893l.137-.107.137.107a4.492 4.492 0 0 0 2.698.898l.22-.005a4.492 4.492 0 0 0 2.558-.955l.052-.043.054.043c.772.606 1.741.96 2.778.96l.214-.005a4.491 4.491 0 0 0 2.484-.893l.136-.107ZM29.081 29h-2.429l-1.208 4.515h1.36l-.937 3.795 3.799-5.676h-1.512L29.08 29Zm7.143-12a2 2 0 0 1 1.814 1.157l1.22 2.626h-.015a3 3 0 1 1-5.577 2.203 3.001 3.001 0 0 1-5.666.008 3.001 3.001 0 0 1-5.666-.008 3.001 3.001 0 1 1-5.503-2.357l1.134-2.465A2 2 0 0 1 19.782 17h16.442Z" fill-rule="evenodd" opacity=".96" fill="currentColor"></path></svg>