<svg viewBox="0 0 56 56" xmlns="http://www.w3.org/2000/svg"><path d="m30.995 16.365 3.148 4.923c.154.241.201.539.129.818L29.746 39.5c-.28 1.079-1.357 1.719-2.404 1.43l-8.887-2.453c-1.047-.29-1.668-1.398-1.388-2.476l4.526-17.395c.072-.28.257-.513.508-.642l5.116-2.643c1.334-.689 2.957-.24 3.778 1.043Zm4.582 7.157 2.387 12.644c.206 1.095-.488 2.157-1.552 2.37l-5.001 1 4.166-16.014ZM27.9 25.424h-.757l-4.04 7.634h.773l4.024-7.634Zm.035 3.77c-.512 0-.948.186-1.31.557a1.864 1.864 0 0 0-.543 1.352c0 .527.18.977.543 1.35.362.372.798.559 1.31.559a1.76 1.76 0 0 0 1.31-.56c.362-.372.543-.822.543-1.349s-.181-.976-.543-1.35a1.76 1.76 0 0 0-1.31-.558Zm0 1.093c.219 0 .406.08.56.239a.798.798 0 0 1 .232.577.798.798 0 0 1-.232.577.752.752 0 0 1-.56.239.752.752 0 0 1-.56-.239.798.798 0 0 1-.232-.577c0-.226.077-.418.231-.577a.752.752 0 0 1 .56-.239Zm-4.841-4.827a1.76 1.76 0 0 0-1.31.56 1.867 1.867 0 0 0-.543 1.348c0 .527.18.977.543 1.35.362.372.798.559 1.31.559.514 0 .952-.187 1.312-.56.36-.372.54-.822.54-1.349 0-.526-.18-.976-.543-1.349a1.76 1.76 0 0 0-1.31-.559Zm0 1.093c.219 0 .405.08.56.238a.798.798 0 0 1 .231.577.798.798 0 0 1-.231.578.752.752 0 0 1-.56.238.752.752 0 0 1-.56-.238.798.798 0 0 1-.232-.578c0-.225.077-.418.231-.577a.752.752 0 0 1 .56-.238Zm3.248-7.977c-.28 1.078.341 2.186 1.388 2.475 1.047.29 2.123-.35 2.404-1.429.28-1.078-.341-2.187-1.388-2.476-1.047-.289-2.123.351-2.404 1.43Z" fill-rule="evenodd" fill="currentColor"></path></svg>