<svg xmlns="http://www.w3.org/2000/svg" data-name="Layer 1" viewBox="0 0 512 512" width="256" height="256"><path fill="#fd4755" d="m161.595 502.136-27.682-44.609a5 5 0 0 0-4.09-2.36l-52.473-1.67A5 5 0 0 1 73.179 446l134.324-232.657 96.995 56L170.174 502a5 5 0 0 1-8.579.136Z" class="colorfd4755 svgShape"></path><path fill="#fb2b3a" d="m207.503 213.343-11.25 19.485 63.245 36.515-116.811 202.323 18.908 30.47a5 5 0 0 0 8.579-.136l134.324-232.657Z" class="colorfb2b3a svgShape"></path><path fill="#fd4755" d="m350.405 502.136 27.682-44.609a5 5 0 0 1 4.09-2.36l52.473-1.67a5 5 0 0 0 4.171-7.497L304.497 213.343l-96.995 56L341.826 502a5 5 0 0 0 8.579.136Z" class="colorfd4755 svgShape"></path><path fill="#fb2b3a" d="M438.821 446 304.497 213.343l-28.995 16.74L405.033 454.44l29.617-.941A5 5 0 0 0 438.82 446Z" class="colorfb2b3a svgShape"></path><path fill="#fed402" d="M466.398 210.21c0 21.43-26.323 38.437-32.601 57.773-6.507 20.04 4.567 49.228-7.573 65.91-12.261 16.847-43.525 15.275-60.373 27.537-16.68 12.14-24.779 42.426-44.82 48.933-19.335 6.278-43.602-13.259-65.031-13.259-21.429 0-45.695 19.537-65.031 13.259-20.04-6.507-28.14-36.794-44.82-48.933-16.848-12.262-48.112-10.69-60.373-27.538-12.14-16.68-1.066-45.868-7.573-65.909-6.278-19.336-32.601-36.343-32.601-57.773 0-21.429 26.323-38.436 32.601-57.772 6.507-20.04-4.567-49.229 7.573-65.91 12.261-16.848 43.525-15.276 60.373-27.537 16.68-12.14 24.779-42.426 44.82-48.933C210.303 3.78 234.57 23.316 256 23.316c21.429 0 45.695-19.537 65.031-13.258 20.04 6.507 28.14 36.793 44.82 48.933 16.848 12.261 48.112 10.69 60.373 27.537 12.14 16.681 1.066 45.87 7.573 65.91 6.278 19.336 32.601 36.343 32.601 57.772Z" class="colorfed402 svgShape"></path><path fill="#fac600" d="M226 23.316a53.849 53.849 0 0 0 15-2.512c-17.233-5.056-35.102-15.594-50.032-10.746a26.499 26.499 0 0 0-4.648 2.047c13.139 4.278 26.913 11.211 39.68 11.211zM466.398 210.21c0-21.43-26.323-38.436-32.601-57.773-6.507-20.04 4.567-49.228-7.573-65.909-12.261-16.848-43.525-15.276-60.373-27.537-16.68-12.14-24.78-42.426-44.82-48.933-7.816-2.538-16.438-.856-25.352 2.046 16.757 9.273 24.845 35.733 40.172 46.887 16.848 12.261 48.112 10.69 60.373 27.537 12.14 16.681 1.066 45.87 7.573 65.91 6.278 19.336 32.601 36.343 32.601 57.772 0 21.43-26.323 38.436-32.601 57.773-6.507 20.04 4.567 49.228-7.573 65.91-12.262 16.847-43.525 15.275-60.373 27.537-15.327 11.154-23.415 37.614-40.171 46.886 8.914 2.903 17.536 4.584 25.352 2.047 20.04-6.507 28.138-36.794 44.82-48.933 16.847-12.262 48.11-10.69 60.372-27.538 12.14-16.68 1.066-45.869 7.573-65.91 6.278-19.336 32.601-36.343 32.601-57.772zM226 397.104c-12.767 0-26.54 6.933-39.68 11.212a26.495 26.495 0 0 0 4.649 2.047c14.93 4.848 32.798-5.69 50.031-10.747a53.852 53.852 0 0 0-15-2.512z" class="colorfac600 svgShape"></path><circle cx="256" cy="210.21" r="128.774" fill="#fd4755" class="colorfd4755 svgShape"></circle><path fill="#fb2b3a" d="M256 81.436a129.502 129.502 0 0 0-15 .879c63.964 7.455 113.774 61.963 113.774 127.895S304.964 330.65 241 338.106a128.773 128.773 0 1 0 15-256.67Z" class="colorfb2b3a svgShape"></path><path fill="#ffffff" d="M259.216 290.151a7.5 7.5 0 0 1-7.5-7.5v-115.73l-22.182 22.183a7.5 7.5 0 0 1-10.607-10.606l34.985-34.986a7.5 7.5 0 0 1 12.804 5.303v133.836a7.5 7.5 0 0 1-7.5 7.5Z" class="colorfff svgShape"></path></svg>