<svg xmlns="http://www.w3.org/2000/svg" viewBox="0 0 64 64" width="256" height="256"><path fill="#ffbd69" d="M48.0957,25.532a2.2767,2.2767,0,0,0-1.2285-3.7842l-8.49-1.6612a.2721.2721,0,0,1-.1856-.1367l-4.2021-7.5586a2.2772,2.2772,0,0,0-3.9786,0l-4.2021,7.56a.2728.2728,0,0,1-.1885.1357l-8.4873,1.6612a2.2761,2.2761,0,0,0-1.2285,3.7832l5.8906,6.333a.272.272,0,0,1,.0713.22L20.8223,40.67a2.2779,2.2779,0,0,0,3.22,2.3388l7.84-3.6455a.274.274,0,0,1,.2344,0l7.8428,3.6455a2.2776,2.2776,0,0,0,3.2187-2.34l-1.0439-8.583a.2746.2746,0,0,1,.0723-.2227Z" class="colorffbd69 svgShape"></path><path fill="#f37121" d="M18.6553,41.2263a1.0124,1.0124,0,0,0-.8565-.0518,6.4482,6.4482,0,0,0-4.0342,5.4248,1.1671,1.1671,0,0,0,.5918,1.0147,4.45,4.45,0,0,1,1.9668,4.1221.9986.9986,0,0,0,.4278.915,3.5724,3.5724,0,0,0,.333.2041.9985.9985,0,0,0,.8515.05,6.4189,6.4189,0,0,0,4.0518-5.6162A6.4953,6.4953,0,0,0,18.6553,41.2263Z" class="colorf37121 svgShape"></path><path fill="#ffbd69" d="M9.2744,10.2273a1.0055,1.0055,0,0,0-.8486-.0977A5.0263,5.0263,0,0,0,7.3809,19.155a1.0018,1.0018,0,0,0,.8486.0977,5.0262,5.0262,0,0,0,1.0449-9.0254Z" class="colorffbd69 svgShape"></path><path fill="#f37121" d="M12.0049,40.4626a4.4947,4.4947,0,0,1-1.374-4.4287,1,1,0,0,0-.2813-1.0615,6.4252,6.4252,0,0,0-6.6387-1.2051,1.0031,1.0031,0,0,0-.59.6231,6.4725,6.4725,0,0,0,6.1641,8.4755,6.4083,6.4083,0,0,0,2.3447-.4433.9964.9964,0,0,0,.582-.6143c.04-.1181.07-.2363.1-.3554A.9975.9975,0,0,0,12.0049,40.4626Z" class="colorf37121 svgShape"></path><path fill="#ffbd69" d="M14.4355,30.9734a1.01,1.01,0,0,0-.832-.1934,6.4084,6.4084,0,0,0-4.8691,4.6211A1.6762,1.6762,0,0,0,8.67,35.63,6.4929,6.4929,0,0,0,10.7275,42l.208.1719a1.0062,1.0062,0,0,0,.625.2188,1.0188,1.0188,0,0,0,.21-.0225,6.5044,6.5044,0,0,0,4.9424-4.8486v-.001A6.4881,6.4881,0,0,0,14.4355,30.9734Z" class="colorffbd69 svgShape"></path><path fill="#f37121" d="M12.6592,20.8825a.998.998,0,0,0-.7774-.3437A5.4515,5.4515,0,0,0,7.0469,23.697a.9818.9818,0,0,0,.19,1.12,3.5255,3.5255,0,0,1,.3369,3.585.9991.9991,0,0,0,.0557.96,2.37,2.37,0,0,0,.2295.3.9963.9963,0,0,0,.7588.35h.0273A5.4732,5.4732,0,0,0,13.54,26.7156l.001-.002A5.4617,5.4617,0,0,0,12.6592,20.8825Z" class="colorf37121 svgShape"></path><path fill="#ffbd69" d="M8.9043 23.7156a1.4137 1.4137 0 0 0-.1963-.254 5.4259 5.4259 0 0 0-5.3418-1.9892.9947.9947 0 0 0-.6875.5019A5.5146 5.5146 0 0 0 7.501 30.1316a5.587 5.587 0 0 0 1.0439-.0987.9961.9961 0 0 0 .69-.497l.1172-.2188c.0107-.0185.0205-.0371.0293-.0556A5.4814 5.4814 0 0 0 8.9043 23.7156zM15.4414 45.9353c-.0586-.0391-.1172-.0772-.1514-.0957a6.4438 6.4438 0 0 0-6.747-.0567 1 1 0 0 0-.4756.7139 6.464 6.464 0 0 0 9.7353 6.4941.9992.9992 0 0 0 .4737-.705c.02-.1241.03-.2481.039-.3721A6.4551 6.4551 0 0 0 15.4414 45.9353z" class="colorffbd69 svgShape"></path><path fill="#f37121" d="M45.3447,41.2263a1.0124,1.0124,0,0,1,.8565-.0518,6.4482,6.4482,0,0,1,4.0342,5.4248,1.1671,1.1671,0,0,1-.5918,1.0147,4.45,4.45,0,0,0-1.9668,4.1221.9986.9986,0,0,1-.4278.915,3.5724,3.5724,0,0,1-.333.2041.9985.9985,0,0,1-.8515.05,6.4189,6.4189,0,0,1-4.0518-5.6162A6.4953,6.4953,0,0,1,45.3447,41.2263Z" class="colorf37121 svgShape"></path><path fill="#ffbd69" d="M54.7256,10.2273a1.0055,1.0055,0,0,1,.8486-.0977,5.0263,5.0263,0,0,1,1.0449,9.0254,1.0018,1.0018,0,0,1-.8486.0977,5.0262,5.0262,0,0,1-1.0449-9.0254Z" class="colorffbd69 svgShape"></path><path fill="#f37121" d="M51.9951,40.4626a4.4947,4.4947,0,0,0,1.374-4.4287,1,1,0,0,1,.2813-1.0615,6.4252,6.4252,0,0,1,6.6387-1.2051,1.0031,1.0031,0,0,1,.59.6231,6.4725,6.4725,0,0,1-6.1641,8.4755,6.4083,6.4083,0,0,1-2.3447-.4433.9964.9964,0,0,1-.582-.6143c-.04-.1181-.07-.2363-.1-.3554A.9975.9975,0,0,1,51.9951,40.4626Z" class="colorf37121 svgShape"></path><path fill="#ffbd69" d="M49.5645,30.9734a1.01,1.01,0,0,1,.832-.1934,6.4084,6.4084,0,0,1,4.8691,4.6211,1.6762,1.6762,0,0,1,.0645.2285A6.4929,6.4929,0,0,1,53.2725,42l-.208.1719a1.0062,1.0062,0,0,1-.625.2188,1.0188,1.0188,0,0,1-.21-.0225,6.5044,6.5044,0,0,1-4.9424-4.8486v-.001A6.4881,6.4881,0,0,1,49.5645,30.9734Z" class="colorffbd69 svgShape"></path><path fill="#f37121" d="M51.3408,20.8825a.998.998,0,0,1,.7774-.3437,5.4515,5.4515,0,0,1,4.8349,3.1582.9818.9818,0,0,1-.19,1.12,3.5255,3.5255,0,0,0-.3369,3.585.9991.9991,0,0,1-.0557.96,2.37,2.37,0,0,1-.23.3.9963.9963,0,0,1-.7588.35h-.0273A5.4732,5.4732,0,0,1,50.46,26.7156l-.001-.002A5.4617,5.4617,0,0,1,51.3408,20.8825Z" class="colorf37121 svgShape"></path><path fill="#ffbd69" d="M55.0957 23.7156a1.4137 1.4137 0 0 1 .1963-.254 5.4259 5.4259 0 0 1 5.3418-1.9892.9947.9947 0 0 1 .6875.5019 5.5146 5.5146 0 0 1-4.8223 8.1573 5.587 5.587 0 0 1-1.0439-.0987.9961.9961 0 0 1-.69-.497l-.1172-.2188c-.0107-.0185-.0205-.0371-.0293-.0556A5.4814 5.4814 0 0 1 55.0957 23.7156zM48.5586 45.9353c.0586-.0391.1172-.0772.1514-.0957a6.4438 6.4438 0 0 1 6.747-.0567 1 1 0 0 1 .4756.7139 6.464 6.464 0 0 1-9.7353 6.4941.9992.9992 0 0 1-.4737-.705c-.02-.1241-.03-.2481-.039-.3721A6.4551 6.4551 0 0 1 48.5586 45.9353z" class="colorffbd69 svgShape"></path></svg>