<svg xmlns="http://www.w3.org/2000/svg" width="90" height="90" viewBox="0 0 90 90">
  <g id="Group_29166" data-name="Group 29166" transform="translate(-314 -476)">
    <g id="favicon" transform="translate(325.008 494.984)">
      <path id="Path_193516" data-name="Path 193516" d="M38.116,16.954l-5.055,4.939-.25.245-1.59,1.576-1.2,1.156-1.608,1.576-.25.245-.7.683-.25.245-2.358,2.312-.25.245a10.143,10.143,0,0,1-2.322,1.751,12.41,12.41,0,0,1-1.3.6,10.681,10.681,0,0,1-3.036.648,8.9,8.9,0,0,1-1.929,0,10.266,10.266,0,0,1-3.93-1.279,6.875,6.875,0,0,1-1.518-1.051h0l-.3-.28L1.088,21.42l-.2-.193a3.014,3.014,0,0,1-.411-.56A3.451,3.451,0,0,1,0,18.915v-.3a3.434,3.434,0,0,1,0-.42.635.635,0,0,0,0-.158H0a4.072,4.072,0,0,1,.643-1.191l.25-.263.161-.158,9.77-9.6,5.912-5.815A3.625,3.625,0,0,1,21.558.858Z" fill="#0b5da9"/>
      <path id="Path_193517" data-name="Path 193517" d="M20.256,38.549a5.575,5.575,0,0,1-2.3-.508L16.077,36.2l-.464-.455-.089-.088-.875-.841-4.376-4.344.3.28a6.875,6.875,0,0,0,1.518,1.051,10.266,10.266,0,0,0,3.93,1.279,8.9,8.9,0,0,0,1.929,0,10.681,10.681,0,0,0,3.036-.648,12.41,12.41,0,0,0,1.3-.6,10.143,10.143,0,0,0,2.322-1.751l.25-.245,2.358-2.312.25-.245.7-.683.25-.245,1.608-1.576,1.2-1.156,1.59-1.576.25-.245L43.227,11.84l4.2-4.449.232-.228a3.333,3.333,0,0,1,4.626,0l2.3,2.259a3.782,3.782,0,0,0-1.513.227,3.726,3.726,0,0,0-1.291.806l-7.77,7.5v.088l-13.5,13.048L25.543,35.87l-.3.315a9.1,9.1,0,0,1-2.3,1.594,7.244,7.244,0,0,1-1.5.49,5.459,5.459,0,0,1-.893.123Z" fill="#eb2429"/>
      <path id="Path_193518" data-name="Path 193518" d="M67.018,26.219l-.25.245L55.729,37.411,44.173,48.917a8.76,8.76,0,0,1-1.161.981l-.179.123a10.788,10.788,0,0,1-13.522-.946h0l-.268-.228L27.061,46.9,21.47,41.421,19.684,39.67l-.268-.263a5.476,5.476,0,0,0,.929,0h.25a7.446,7.446,0,0,0,1.072-.123,8.24,8.24,0,0,0,1.786-.578,9.919,9.919,0,0,0,2.554-1.751l.357-.368,4.287-4.133L45.423,18.215V18.11L52.568,11.1a2.846,2.846,0,0,1,3.572-.3l1.786,1.751L67.143,21.6l.232.245a3.178,3.178,0,0,1-.357,4.379Z" fill="#eb2429"/>
      <path id="Path_193519" data-name="Path 193519" d="M31.382,14.222a.689.689,0,0,1-.947,0,11.361,11.361,0,0,0-15.843-.07,10.835,10.835,0,0,0-.071,15.535l3.412,3.38a9.6,9.6,0,0,1-1.875,0l-2.5-2.487a12.148,12.148,0,0,1,.1-17.418,12.738,12.738,0,0,1,17.764.1h0a.649.649,0,0,1,.154.224.636.636,0,0,1-.02.527A.65.65,0,0,1,31.382,14.222Z" fill="#089dd9"/>
      <path id="Path_193520" data-name="Path 193520" d="M36.581,18.442l-.947.928-1.643-1.646a.647.647,0,0,1-.148-.212.636.636,0,0,1,0-.5.647.647,0,0,1,.148-.212.707.707,0,0,1,.947,0Z" fill="#089dd9"/>
      <path id="Path_193521" data-name="Path 193521" d="M22.309,31.929a9.112,9.112,0,0,1-1.268.578L16.4,27.918a8.319,8.319,0,0,1-.982-10.684.664.664,0,0,1,.186-.18.68.68,0,0,1,.743,0,.662.662,0,0,1,.183.182.65.65,0,0,1,.1.237.645.645,0,0,1-.1.492,6.9,6.9,0,0,0,.84,9.02Z" fill="#089dd9"/>
      <path id="Path_193522" data-name="Path 193522" d="M33.8,21.175l-.7.683-.214.21-5.234-5.149A7.18,7.18,0,0,0,24.219,15a7.28,7.28,0,0,0-3.945.164.691.691,0,0,1-.48-.077.669.669,0,0,1-.3-.372.654.654,0,0,1,.028-.476.672.672,0,0,1,.346-.336,8.754,8.754,0,0,1,4.677-.173,8.636,8.636,0,0,1,4.075,2.257Z" fill="#089dd9"/>
      <path id="Path_193523" data-name="Path 193523" d="M30.99,23.924l-.947.928L24.81,19.6a3.334,3.334,0,0,0-4.552.073,3.178,3.178,0,0,0-.11,4.463l3.376,3.345a.654.654,0,0,1,.141.216.645.645,0,0,1-.01.5.657.657,0,0,1-.149.21.671.671,0,0,1-.22.138.682.682,0,0,1-.512-.01.67.67,0,0,1-.215-.146L19.2,25.063a4.473,4.473,0,0,1,.143-6.287,4.693,4.693,0,0,1,6.412-.106Z" fill="#089dd9"/>
      <path id="Path_193524" data-name="Path 193524" d="M28.186,26.674l-.7.683-.232.228-5.234-5.254a.648.648,0,0,1-.148-.212.636.636,0,0,1,0-.5.647.647,0,0,1,.148-.212.689.689,0,0,1,.947,0Z" fill="#089dd9"/>
    </g>
  </g>
</svg>
