<svg width="129" height="60" viewBox="0 0 129 60" fill="none" xmlns="http://www.w3.org/2000/svg">
<path d="M28.772 23.9141L41.7751 0.935948C41.8642 0.846886 41.9532 0.757812 42.0423 0.757812H56.2032C56.4704 0.757812 56.5595 1.025 56.4704 1.20312L34.9173 37.9859C34.9173 38.075 34.9173 38.075 34.9173 38.1641V59.2719C34.9173 59.45 34.7392 59.5391 34.6501 59.5391H22.3595C22.1814 59.5391 22.0923 59.3609 22.0923 59.2719V37.6297C22.0923 37.5406 22.0923 37.5406 22.0923 37.4516L0.806348 1.20312C0.717285 1.025 0.806347 0.757812 1.07353 0.757812H15.3235C15.4126 0.757812 15.5017 0.846886 15.5907 0.935948L28.5048 23.9141H28.772Z" fill="#25836E"/>
<path d="M81.0523 41.1921L84.0805 39.0546L99.8445 28.0109C104.921 24.4484 111.957 25.6953 115.52 30.7718C119.082 35.8484 117.835 42.8843 112.759 46.4468C108.929 49.1187 103.941 49.1187 100.201 46.714L90.7602 53.3046C98.2414 60.6077 110.176 61.7656 119.082 55.5312C129.146 48.4953 131.64 34.6015 124.604 24.4484C117.568 14.3843 103.674 11.8906 93.5211 18.9265L65.6445 38.4312C69.118 43.5077 76.0648 44.7546 81.0523 41.1921Z" fill="#25836E"/>
<path d="M96.1924 33.2656L93.1643 35.4031L77.4002 46.4469C72.3237 50.0094 65.2877 48.7625 61.7252 43.686C58.1627 38.6094 59.4096 31.5735 64.4862 28.011C68.3159 25.3391 73.3034 25.3391 77.044 27.7438L86.4846 21.1531C79.0034 13.85 67.069 12.6922 58.1627 18.9266C48.0987 25.9625 45.6049 39.8563 52.6409 50.0094C59.6768 60.0734 73.5705 62.5672 83.7237 55.5313L111.6 36.0266C108.127 31.0391 101.269 29.7922 96.1924 33.2656Z" fill="#25836E"/>
</svg>
