<svg version="1.0" id="Layer_1" xmlns="http://www.w3.org/2000/svg" xmlns:xlink="http://www.w3.org/1999/xlink" x="0px" y="0px"
	 viewBox="0 0 512 512" style="enable-background:new 0 0 512 512;" xml:space="preserve">
<style type="text/css">
	.st0{fill:url(#SVGID_1_);}
	.st1{fill:#FFFFFF;}
	.st2{fill:url(#SVGID_00000155861472537390274810000007359989878903917756_);}
	.st3{fill:url(#SVGID_00000102514476201769761310000008485850215152486820_);}
	.st4{fill:url(#SVGID_00000133526822138977604160000006295988383384983741_);}
	.st5{fill:url(#SVGID_00000092439627239302756760000015804054342511452351_);}
	.st6{fill:url(#SVGID_00000016777025194926389690000016582050074833545392_);}
	.st7{fill:#223368;}
	.st8{fill:#DF4D29;}
	.st9{fill:none;}
	.st10{fill:#111111;}
	.st11{fill:none;stroke:#111111;stroke-width:20;stroke-linecap:round;stroke-linejoin:round;stroke-miterlimit:10;}
	.st12{fill-rule:evenodd;clip-rule:evenodd;fill:#FFFFFF;}
	.st13{fill:#046FAF;}
	.st14{fill:url(#SVGID_00000024692498346987053320000002781549511503356828_);}
	.st15{fill:url(#SVGID_00000005247027969130443330000003430660349562139568_);}
	.st16{fill:url(#SVGID_00000094612279995465923960000001898709415033721728_);}
	.st17{fill:url(#SVGID_00000098215559385212441910000007749946756105545661_);}
	.st18{fill:url(#SVGID_00000183236448580763048230000013494996834196431745_);}
	.st19{fill:url(#SVGID_00000009560709977618582140000012971023854966544568_);}
	.st20{fill:url(#SVGID_00000130607722778629284580000013367028396700136893_);}
	.st21{fill:url(#SVGID_00000072999724918503937380000000239272847106320818_);}
	.st22{fill:url(#SVGID_00000060735578451033508890000008903366104643717285_);}
	.st23{fill:url(#SVGID_00000142177063275276301050000001287056012197529986_);}
	.st24{fill:url(#SVGID_00000116220627960793311090000001023685628496827310_);}
	.st25{fill:url(#SVGID_00000092452970003105930900000006749464678458845082_);}
	.st26{fill:url(#SVGID_00000051372364431977935190000006737699454447223473_);}
	.st27{fill:url(#SVGID_00000146480926900659328100000017866066977424757900_);}
	.st28{fill:url(#SVGID_00000153682570035750627830000003608965814599788946_);}
	.st29{fill:url(#SVGID_00000098901893645199601100000010916077864855545232_);}
	.st30{fill:url(#SVGID_00000066516784105503065220000002796010464522976948_);}
	.st31{fill:url(#SVGID_00000108288331615039665640000010641292957912827833_);}
	.st32{fill:url(#SVGID_00000145037178265580400300000010734988597417021831_);}
	.st33{fill:url(#SVGID_00000148658783062267039120000013446586539060660140_);}
	.st34{fill:url(#SVGID_00000051378848884570051240000012556701706301948076_);}
	.st35{fill:url(#SVGID_00000105385765199707262480000001434613516668177034_);}
	.st36{fill:url(#SVGID_00000116217157655605007790000014194875961107977369_);}
	.st37{fill:url(#SVGID_00000067917940334198524910000002522153373046940580_);}
	.st38{fill:url(#SVGID_00000022545524548385443980000009191470402421772208_);}
	.st39{fill:url(#SVGID_00000155850100140564510420000004615650989174959002_);}
	.st40{fill:url(#SVGID_00000043427817773152070130000004618425255031526023_);}
	.st41{fill:url(#SVGID_00000000186228020451663590000007819309335253770906_);}
	.st42{fill:url(#SVGID_00000132785030061183738290000011335001505254685112_);}
	.st43{fill:url(#SVGID_00000108997685063614542920000010870257369569758343_);}
	.st44{fill:url(#SVGID_00000049906086802160441850000006215590963924375439_);}
	.st45{fill:url(#SVGID_00000062901339734567758270000002329934889002662805_);}
	.st46{fill:url(#SVGID_00000141452003499314419290000007765070183074069906_);}
	.st47{fill:url(#SVGID_00000014601433318769202480000017796982760873810066_);}
	.st48{fill:url(#SVGID_00000013166392696048190020000011098479536497266100_);}
	.st49{fill:url(#SVGID_00000034781222858044057610000006992454251617202620_);}
	.st50{fill:url(#SVGID_00000047024145234332732300000005369852258448502194_);}
	.st51{fill:url(#SVGID_00000007390824064917036480000005992975407365108154_);}
	.st52{fill:url(#SVGID_00000030485119328978741750000000185157920252048549_);}
	.st53{fill:url(#SVGID_00000043430985769184084840000000013953577390942895_);}
	.st54{fill:url(#SVGID_00000006685651947469685270000004429372383407251366_);}
	.st55{fill:url(#SVGID_00000144299140451596227030000017216227097556402841_);}
	.st56{fill:url(#SVGID_00000022533815146562516270000008873900985535411135_);}
	.st57{fill:url(#SVGID_00000047773710073087790190000011097465330423383717_);}
	.st58{fill:url(#SVGID_00000116938094623217931590000002687136191823996813_);}
	.st59{fill:url(#SVGID_00000160174165770429958650000006819942041684078501_);}
	.st60{fill:url(#SVGID_00000078037665068520343070000008565543494246484913_);}
	.st61{fill:url(#SVGID_00000042709337559464824490000012260214555918634401_);}
	.st62{fill:url(#SVGID_00000016062622517546245200000016529020671311706300_);}
	.st63{fill:url(#SVGID_00000093892609939023895670000017917046703317494675_);}
	.st64{fill:url(#SVGID_00000158017184869778081030000011485393464701861273_);}
	.st65{fill:url(#SVGID_00000098200618565556320790000001623816394495965587_);}
	.st66{fill:url(#SVGID_00000112624338396574724980000001258592379869429166_);}
	.st67{fill:url(#SVGID_00000086676418797794122560000008950822639546519475_);}
	.st68{fill:url(#SVGID_00000013915387999350132090000018032914122319483804_);}
	.st69{fill:url(#SVGID_00000058553677882286761720000009839927429049255060_);}
	.st70{fill:url(#SVGID_00000016065265320658727200000004071120559666049414_);}
	.st71{fill:url(#SVGID_00000075885638131465230870000005876594747822007458_);}
	.st72{fill:url(#SVGID_00000041292546149412634490000012127393180683894719_);}
	.st73{fill:url(#SVGID_00000070110362816513072220000003380783368952491178_);}
	.st74{fill:url(#SVGID_00000172398276380952611590000014892491616179676808_);}
	.st75{fill:url(#SVGID_00000118363154768932158310000014304254041378822335_);}
	.st76{fill:url(#SVGID_00000079458124169488137660000004432066973910840739_);}
	.st77{fill:url(#SVGID_00000088831656392352975230000000476918593597566604_);}
	.st78{fill:url(#SVGID_00000107553226154747862500000000135473911738558879_);}
	.st79{fill:url(#SVGID_00000009591302529944739570000002078078961753584277_);}
	.st80{fill:#DBE2C5;}
	.st81{fill:url(#SVGID_00000087374646822953958530000007416835446791265180_);}
	.st82{fill:#25836E;}
	.st83{fill:#ACC981;}
	.st84{fill:url(#SVGID_00000158722856841148303010000002611545877215488690_);}
	.st85{fill:url(#SVGID_00000155136443077355231310000009661448807738539679_);}
	.st86{fill:url(#SVGID_00000068669228260431042310000016547476564302163626_);}
	.st87{fill:url(#SVGID_00000125602360265294846250000017949979929586882216_);}
</style>
<g>
	<path class="st82" d="M86.2,398.5l14.6-25.8c0.1-0.1,0.2-0.2,0.3-0.2H117c0.3,0,0.4,0.3,0.3,0.5l-24.2,41.3c0,0.1,0,0.1,0,0.2v23.7
		c0,0.2-0.2,0.3-0.3,0.3H79c-0.2,0-0.3-0.2-0.3-0.3v-24.3c0-0.1,0-0.1,0-0.2L54.8,373c-0.1-0.2,0-0.5,0.3-0.5h16
		c0.1,0,0.2,0.1,0.3,0.2l14.5,25.8H86.2z"/>
	<g>
		<g>
			<path class="st82" d="M144.9,417.9l3.4-2.4l17.7-12.4c5.7-4,13.6-2.6,17.6,3.1c4,5.7,2.6,13.6-3.1,17.6c-4.3,3-9.9,3-14.1,0.3
				l-10.6,7.4c8.4,8.2,21.8,9.5,31.8,2.5c11.3-7.9,14.1-23.5,6.2-34.9c-7.9-11.3-23.5-14.1-34.9-6.2l-31.3,21.9
				C131.5,420.5,139.3,421.9,144.9,417.9z"/>
			<path class="st82" d="M161.9,409l-3.4,2.4l-17.7,12.4c-5.7,4-13.6,2.6-17.6-3.1c-4-5.7-2.6-13.6,3.1-17.6c4.3-3,9.9-3,14.1-0.3
				l10.6-7.4c-8.4-8.2-21.8-9.5-31.8-2.5c-11.3,7.9-14.1,23.5-6.2,34.9c7.9,11.3,23.5,14.1,34.9,6.2l31.3-21.9
				C175.3,406.5,167.6,405.1,161.9,409z"/>
		</g>
	</g>
</g>
<g>
	<g>
		<path class="st83" d="M234.8,399.1c8,1.7,14,4.1,17.8,7.2c3.9,3,5.8,7.3,5.8,12.7c0,6.3-2.4,11.1-7.2,14.5
			c-4.8,3.4-11.1,5.1-18.9,5.1c-4.4,0-9.2-0.8-14.3-2.4s-9.4-3.5-12.8-5.8l5.1-10.9c6.7,4.6,14.1,6.9,22.3,6.9
			c3.2,0,5.9-0.6,8.2-1.7c2.2-1.2,3.3-2.8,3.3-4.9c0-1.8-1-3.3-3-4.6c-2-1.3-5.5-2.4-10.4-3.5c-7.8-1.7-13.7-4.2-17.7-7.2
			c-4-3.1-5.9-7.5-5.9-13.2c0-5.7,2.5-10.3,7.4-13.6c4.9-3.4,11.3-5,19.3-5c4,0,7.9,0.6,11.9,1.7c3.9,1.2,7.2,2.5,9.8,4.1l-3.8,11.6
			c-5.8-3.4-11.9-5.1-18.3-5.1c-3.9,0-6.9,0.6-8.9,1.8c-2,1.2-3,2.7-3,4.5c0,1.8,1,3.3,3.1,4.6C226.4,396.9,229.9,398,234.8,399.1z"
			/>
		<path class="st83" d="M289.8,391.1c7.1,0,12.9,2.2,17.2,6.6s6.4,10.1,6.4,17.2c0,0.2,0,0.6,0,1c0,0.4-0.1,0.9-0.1,1.6
			c-0.1,0.6-0.1,1.1-0.1,1.5h-33.9c1.8,5.1,6.6,7.7,14.2,7.7c5.5,0,10.2-1.2,14.3-3.6l2.4,11.2c-4.6,2.8-10.2,4.3-16.9,4.3
			c-8.5,0-15.3-2.2-20.3-6.6c-5-4.4-7.5-10.1-7.5-17.1c0-6.9,2.3-12.6,6.8-17.1C277,393.4,282.7,391.1,289.8,391.1z M279.1,411h21.4
			c-0.1-2.3-1.2-4.2-3.2-5.6c-2-1.4-4.5-2.1-7.4-2.1c-2.7,0-5,0.7-6.9,2.1C281.1,406.7,279.8,408.6,279.1,411z"/>
		<path class="st83" d="M322.3,437.3v-64.8h12.9v64.8H322.3z"/>
		<path class="st83" d="M346.6,437.3v-64.8h12.9v64.8H346.6z"/>
		<path class="st83" d="M392.5,391.1c7.1,0,12.9,2.2,17.2,6.6s6.4,10.1,6.4,17.2c0,0.2,0,0.6,0,1c0,0.4-0.1,0.9-0.1,1.6
			c-0.1,0.6-0.1,1.1-0.1,1.5H382c1.8,5.1,6.6,7.7,14.2,7.7c5.5,0,10.2-1.2,14.3-3.6l2.4,11.2c-4.6,2.8-10.2,4.3-16.9,4.3
			c-8.5,0-15.3-2.2-20.3-6.6c-5-4.4-7.5-10.1-7.5-17.1c0-6.9,2.3-12.6,6.8-17.1C379.7,393.4,385.5,391.1,392.5,391.1z M381.8,411
			h21.4c-0.1-2.3-1.2-4.2-3.2-5.6c-2-1.4-4.5-2.1-7.4-2.1c-2.7,0-5,0.7-6.9,2.1C383.8,406.7,382.5,408.6,381.8,411z"/>
		<path class="st83" d="M436.7,401.8c1.7-3.3,4-6,6.9-7.9c2.9-1.9,6.1-2.8,9.6-2.8l-0.1,12c-4.1,0-7.7,1.2-10.7,3.7
			c-3,2.4-4.6,5.9-4.6,10.3v20.2h-12.9v-44.9h7.1L436.7,401.8L436.7,401.8z"/>
	</g>
</g>
<g>
	<linearGradient id="SVGID_1_" gradientUnits="userSpaceOnUse" x1="77.4758" y1="189.6975" x2="280.6504" y2="189.6975">
		<stop  offset="0.1099" style="stop-color:#91D5EA"/>
		<stop  offset="0.3568" style="stop-color:#79BEBC"/>
		<stop  offset="0.9144" style="stop-color:#3E8349"/>
		<stop  offset="1" style="stop-color:#357A37"/>
	</linearGradient>
	<path class="st0" d="M280.7,202c0,23-9.3,43.9-24.3,59.1c-0.1,0.1-0.3,0.3-0.4,0.4c-0.1,0.1-0.3,0.3-0.4,0.4L196.5,321
		c9.6-9.6,16.9-21.5,21-34.9c0.3-0.9,0.6-1.9,0.8-2.8c1.9-6.9,2.8-14.2,2.8-21.8c0-23.2-9.4-44.3-24.7-59.5L77.5,83
		c0.1-0.1,0.2-0.2,0.3-0.3C93,67.6,113.9,58.4,137,58.4c3.5,0,6.9,0.2,10.2,0.6c19.1,2.3,36.3,11,49.3,24h0l59.1,59.1
		c0.1,0.1,0.3,0.3,0.4,0.4c0.1,0.1,0.3,0.3,0.4,0.4C271.4,158.1,280.7,179,280.7,202z"/>
	
		<linearGradient id="SVGID_00000031179237992997880900000017868834687719373960_" gradientUnits="userSpaceOnUse" x1="271.1342" y1="202.0227" x2="-3.9331" y2="202.0227">
		<stop  offset="0.2655" style="stop-color:#2D897A"/>
		<stop  offset="0.8761" style="stop-color:#D9EFA4"/>
	</linearGradient>
	<path style="fill:url(#SVGID_00000031179237992997880900000017868834687719373960_);" d="M196.5,202c-13,13-30.1,21.7-49.3,24
		c-3.4,0.4-6.8,0.6-10.2,0.6c-7.5,0-14.8-1-21.8-2.9c-14.2-3.8-26.9-11.2-37.1-21.2c-0.1-0.1-0.2-0.1-0.2-0.2
		c-0.1-0.1-0.3-0.3-0.4-0.4c0.2-0.2,0.5-0.5,0.7-0.7c10.2-9.9,22.9-17.3,37-21.1c7-1.9,14.3-2.9,21.8-2.9c3.5,0,6.9,0.2,10.2,0.6
		C166.3,180.3,183.5,189.1,196.5,202z"/>
	
		<linearGradient id="SVGID_00000034058026747292090120000006198816032414685605_" gradientUnits="userSpaceOnUse" x1="107.6988" y1="351.7639" x2="235.5965" y2="217.6273">
		<stop  offset="3.952320e-02" style="stop-color:#2A9476"/>
		<stop  offset="0.8761" style="stop-color:#195658"/>
	</linearGradient>
	<path style="fill:url(#SVGID_00000034058026747292090120000006198816032414685605_);" d="M221.1,261.5c0,7.5-1,14.9-2.9,21.8
		c-0.3,1-0.5,1.9-0.8,2.9c-4.1,13.3-11.4,25.3-21,34.8c-13,13-30.1,21.7-49.3,24c-3.4,0.4-6.8,0.6-10.2,0.6
		c-23.1,0-44-9.3-59.2-24.3c-0.1-0.1-0.2-0.2-0.3-0.3c0.5-0.5,1-1,1.4-1.4l33.4-33.4l24.6-24.6l10.2-10.2l49.3-49.3
		C211.7,217.3,221.1,238.3,221.1,261.5z"/>
	
		<linearGradient id="SVGID_00000090985617739299022620000016735854669327933367_" gradientUnits="userSpaceOnUse" x1="401.9086" y1="52.3627" x2="229.6435" y2="236.0535">
		<stop  offset="0.2655" style="stop-color:#2D897A"/>
		<stop  offset="0.8761" style="stop-color:#D9EFA4"/>
	</linearGradient>
	<path style="fill:url(#SVGID_00000090985617739299022620000016735854669327933367_);" d="M434.5,83l-34.9,34.9L375,142.5L315.5,202
		h0l-59.1,59.1c15-15.2,24.3-36.1,24.3-59.1c0-23-9.3-43.9-24.3-59.1c-0.1-0.1-0.3-0.3-0.4-0.4l24.6-24.6L315.5,83
		c15.2-15.2,36.3-24.7,59.5-24.7c8.6,0,16.8,1.3,24.7,3.7C413,66.1,424.9,73.4,434.5,83z"/>
</g>
</svg>
